<svg width="332" height="335" viewBox="0 0 332 335" fill="none" xmlns="http://www.w3.org/2000/svg">
<path d="M146.08 131.831C145.888 131.831 145.791 131.831 145.599 131.734L104.797 107.929C104.412 107.638 104.219 107.152 104.508 106.666C104.797 106.277 105.278 106.083 105.759 106.375L146.561 130.179C146.946 130.471 147.139 130.957 146.85 131.443C146.754 131.637 146.465 131.831 146.08 131.831Z" fill="#2ECC71"/>
<path d="M71.5003 185.853C71.3078 185.853 71.2116 185.853 71.0191 185.756L0.481159 144.268C0.192464 144.074 0 143.782 0 143.393C0 143.005 0.192464 142.713 0.481159 142.519L65.149 107.055C65.6301 106.763 66.2075 106.958 66.4962 107.443C66.7849 107.929 66.5924 108.512 66.1113 108.804L2.88696 143.393L71.9814 184.007C72.4626 184.299 72.5588 184.882 72.3664 185.368C72.0777 185.756 71.789 185.853 71.5003 185.853Z" fill="#2ECC71"/>
<path d="M157.628 62.2629L234.132 106.86C236.249 108.124 237.885 106.763 237.885 103.946V60.7083C237.885 57.8906 236.153 54.587 234.132 53.4211L157.628 8.82347C155.511 7.56035 153.875 8.92063 153.875 11.7383V54.9757C153.875 57.7934 155.607 61.0969 157.628 62.2629Z" fill="url(#paint0_linear_3925_228)"/>
<path d="M225.856 234.046L113.361 168.461C112.495 167.976 112.014 167.101 112.014 166.13C112.014 165.158 112.495 164.283 113.361 163.798L183.225 123.087L183.803 122.795L301.591 191.489C302.457 191.975 302.938 192.849 302.938 193.821C302.938 194.793 302.457 195.667 301.591 196.153L236.538 234.046C234.902 235.018 233.074 235.504 231.245 235.504C229.417 235.504 227.492 235.018 225.856 234.046ZM114.516 165.741C114.323 165.838 114.323 166.032 114.323 166.13C114.323 166.227 114.323 166.421 114.516 166.518L227.011 232.103C229.609 233.658 232.881 233.658 235.479 232.103L300.628 194.112C300.821 194.015 300.821 193.821 300.821 193.724C300.821 193.627 300.821 193.432 300.628 193.335L183.899 125.321L114.516 165.741Z" fill="#2ECC71"/>
<path d="M183.707 95.6867L199.393 1.82776L198.142 1.24479L200.066 0.175998C200.451 -0.115489 200.932 -0.0183246 201.51 0.273163L326.804 73.2422C327.862 73.8251 328.632 75.3797 328.439 76.4485L312.657 171.085C312.561 171.571 312.369 171.862 311.984 172.056L310.155 173.125L309.867 171.376H309.963L185.439 98.7959C184.284 98.3101 183.514 96.7555 183.707 95.6867Z" fill="#1E7742"/>
<path d="M326.034 75.8655L328.054 74.9911C328.247 75.4769 328.439 76.0599 328.343 76.5457L312.561 171.182C312.465 171.668 312.272 171.959 311.888 172.154L310.059 173.222L309.77 171.473H309.867L303.612 167.781L326.034 75.8655Z" fill="#0F632D"/>
<path d="M183.322 100.06L308.616 173.029C309.578 173.612 310.444 173.223 310.54 172.252L326.322 77.6154C326.515 76.5466 325.745 74.992 324.686 74.409L199.489 1.44005C198.526 0.857071 197.66 1.24572 197.564 2.21735L181.782 96.8536C181.59 97.9224 182.359 99.477 183.322 100.06Z" fill="#38E57E"/>
<g opacity="0.51">
<path opacity="0.51" d="M201.125 7.46326L321.896 77.8089L306.884 167.004L186.209 96.6584L201.125 7.46326Z" fill="#041860"/>
</g>
<path d="M104.604 144.851L111.436 148.446L179.954 108.512C181.108 107.832 183.129 107.929 184.38 108.706L302.553 177.595C303.708 176.915 308.808 174.486 308.808 174.486L306.306 181.093C306.21 181.384 306.017 181.676 305.632 181.87L233.458 223.941C232.304 224.621 230.283 224.524 229.032 223.747L108.068 153.207C107.491 152.915 107.202 152.527 107.01 152.138L104.604 144.851Z" fill="#1E7742"/>
<path d="M105.663 146.017L229.705 218.306C231.053 219.083 233.074 219.18 234.325 218.5L308.327 175.36C309.482 174.68 309.385 173.514 308.038 172.639L184.092 100.35C182.744 99.5731 180.723 99.476 179.472 100.156L105.47 143.296C104.219 143.976 104.315 145.24 105.663 146.017Z" fill="#2A9E59"/>
<path d="M105.663 145.24L229.705 217.529C231.053 218.306 233.073 218.403 234.324 217.723L308.327 174.583C308.712 174.388 308.904 174.097 309 173.805C309.193 174.388 309 174.971 308.327 175.36L234.324 218.5C233.17 219.18 231.053 219.083 229.705 218.306L105.759 146.017C104.893 145.531 104.508 144.754 104.7 144.171C104.796 144.559 105.085 144.948 105.663 145.24Z" fill="#DDDDDD"/>
<path d="M267.043 202.663V201.302C267.043 201.205 266.947 201.108 266.851 201.205L262.039 204.023C261.943 204.12 261.847 204.217 261.847 204.314V205.675C261.847 205.772 261.943 205.869 262.039 205.772L266.851 202.954C266.947 202.857 267.043 202.76 267.043 202.663Z" fill="#1C7540"/>
<path d="M259.922 206.841V205.48C259.922 205.383 259.826 205.286 259.73 205.383L254.918 208.201C254.822 208.298 254.726 208.395 254.726 208.492V209.853C254.726 209.95 254.822 210.047 254.918 209.95L259.73 207.132C259.826 207.132 259.922 206.938 259.922 206.841Z" fill="#1C7540"/>
<path d="M288.984 171.279L185.92 111.233C185.246 110.844 184.38 110.844 183.707 111.233L147.042 132.706C146.561 132.997 146.561 133.774 147.042 134.066L250.01 194.112C250.684 194.501 251.55 194.501 252.224 194.112L288.984 172.737C289.466 172.348 289.466 171.571 288.984 171.279Z" fill="#2ECC71"/>
<path d="M288.984 172.639L288.599 172.834L185.92 112.982C185.246 112.593 184.38 112.593 183.707 112.982L147.427 134.163L147.042 133.969C146.561 133.677 146.561 132.9 147.042 132.608L183.707 111.136C184.38 110.747 185.246 110.747 185.92 111.136L288.984 171.182C289.466 171.571 289.466 172.348 288.984 172.639Z" fill="#1E7742"/>
<path d="M180.916 116.674L270.412 168.85L274.357 166.518L184.861 114.342L180.916 116.674Z" fill="#1C7540"/>
<path d="M171.197 122.309L255.111 171.279L259.056 168.947L175.142 119.977L171.197 122.309Z" fill="#1C7540"/>
<path d="M164.845 126.001L263.675 183.619L267.621 181.384L168.791 123.767L164.845 126.001Z" fill="#1C7540"/>
<path d="M158.494 129.791L257.324 187.408L261.27 185.076L162.439 127.459L158.494 129.791Z" fill="#1C7540"/>
<path d="M152.143 133.483L250.973 191.1L254.918 188.768L156.088 131.151L152.143 133.483Z" fill="#1C7540"/>
<path d="M275.801 171.959L279.842 174.291L283.788 171.959L279.842 169.627L275.801 171.959Z" fill="#1C7540"/>
<path d="M261.751 175.166L270.027 180.024L274.068 177.692L265.792 172.834L261.751 175.166Z" fill="#1C7540"/>
<path d="M181.975 185.853L154.164 169.627C153.105 168.947 153.105 167.976 154.164 167.295L173.121 156.219C174.18 155.539 176.008 155.539 177.067 156.219L204.878 172.445C205.936 173.125 205.936 174.097 204.878 174.777L185.92 185.853C184.765 186.436 183.033 186.436 181.975 185.853Z" fill="#3EED85"/>
<path d="M204.878 173.417L177.067 157.191C176.008 156.51 174.18 156.51 173.121 157.191L154.163 168.267C153.875 168.462 153.586 168.656 153.49 168.947C153.201 168.364 153.394 167.781 154.163 167.296L173.121 156.219C174.18 155.539 176.008 155.539 177.067 156.219L204.878 172.445C205.647 172.931 205.84 173.514 205.551 174.097C205.455 173.806 205.166 173.611 204.878 173.417Z" fill="#1E7742"/>
<g opacity="0.2">
<path d="M183.803 100.253L307.75 172.542C309.097 173.319 311.118 173.417 312.369 172.736L320.645 122.309C322.569 111.621 324.975 97.5328 325.937 92.1888L262.136 54.5869C260.788 53.8096 258.768 53.7124 257.517 54.3926L183.514 97.5327C182.263 98.2128 182.456 99.476 183.803 100.253Z" fill="url(#paint1_linear_3925_228)"/>
<path d="M308.135 113.176L280.323 96.9498C279.265 96.2696 279.265 95.298 280.323 94.6179L299.281 83.5414C300.34 82.8612 302.168 82.8612 303.227 83.5414L319.201 92.6747C318.239 99.4761 316.795 107.735 316.314 110.65L312.08 113.176C311.021 113.856 309.193 113.856 308.135 113.176Z" fill="url(#paint2_linear_3925_228)"/>
<path d="M319.201 93.6462L303.227 84.513C302.168 83.8328 300.34 83.8328 299.281 84.513L280.324 95.5894C280.035 95.7837 279.746 95.978 279.65 96.2695C279.361 95.6866 279.554 95.1036 280.324 94.6178L299.281 83.5413C300.34 82.8612 302.168 82.8612 303.227 83.5413L319.682 93.1604C319.682 93.1604 319.49 93.0632 319.201 93.6462C319.586 93.8405 319.105 93.4519 319.201 93.6462Z" fill="#9198DB"/>
<path d="M313.908 123.281L240.291 78.3916C239.617 78.0029 238.751 78.0029 238.078 78.3916L201.413 99.8645C200.932 100.156 200.932 100.933 201.413 101.225L304.382 161.271C305.055 161.66 305.921 161.66 306.595 161.271L313.427 129.111C313.908 128.819 313.427 125.224 313.908 123.281Z" fill="#ADB1F2"/>
<path d="M314.39 122.309V123.281L240.291 80.2377C239.617 79.849 238.751 79.849 238.078 80.2377L201.798 101.419L201.413 101.225C200.932 100.933 200.932 100.156 201.413 99.8646L238.078 78.3916C238.751 78.0029 239.617 78.0029 240.291 78.3916L314.39 121.338C314.967 121.629 314.967 122.018 314.39 122.309Z" fill="#9198DB"/>
<path d="M210.94 98.4073L300.725 150.681L297.164 152.818L207.38 100.448L210.94 98.4073Z" fill="#24126A"/>
<path d="M220.371 92.8689L305.729 142.616L302.168 144.657L216.81 95.0065L220.371 92.8689Z" fill="#24126A"/>
<path d="M226.337 89.4681L311.502 139.313L311.021 143.199L222.777 91.5086L226.337 89.4681Z" fill="#24126A"/>
<path d="M232.304 85.9705L312.465 132.997L311.984 136.884L228.743 88.0109L232.304 85.9705Z" fill="#24126A"/>
<path d="M238.559 82.7943L313.908 126.682L312.946 130.568L234.998 84.8347L238.559 82.7943Z" fill="#24126A"/>
</g>
<path d="M310.733 83.1527L313.139 84.7074L313.331 82.8612L311.021 81.3065L310.733 83.1527Z" fill="#1D723F"/>
<path d="M308.712 95.201L311.118 96.7556L312.85 86.2619L310.444 84.8044L308.712 95.201Z" fill="#1D723F"/>
<path d="M307.846 100.933L310.252 102.488L310.829 98.4072L308.519 96.8527L307.846 100.933Z" fill="#1D723F"/>
<path d="M306.884 106.957L309.193 108.512L309.867 104.334L307.557 102.78L306.884 106.957Z" fill="#1D723F"/>
<path d="M306.21 86.6505L308.616 88.1079L309.289 84.0271L306.884 82.4725L306.21 86.6505Z" fill="#1D723F"/>
<path d="M304.959 94.5206L307.365 96.0752L308.327 89.954L305.921 88.3994L304.959 94.5206Z" fill="#1D723F"/>
<path d="M303.804 101.808L306.114 103.362L306.98 98.1157L304.574 96.5612L303.804 101.808Z" fill="#1D723F"/>
<path d="M305.921 112.884L308.231 114.439L308.904 110.358L306.595 108.804L305.921 112.884Z" fill="#1D723F"/>
<path d="M307.172 80.8208L309.578 82.3754L309.867 80.6265L307.461 79.0719L307.172 80.8208Z" fill="#1D723F"/>
<path d="M303.131 117.548L307.365 120.269L307.653 118.52L303.419 115.897L303.131 117.548Z" fill="#1D723F"/>
<path d="M156.28 251.147L59.375 194.695C58.6051 194.21 58.2202 193.529 58.2202 192.849C58.2202 191.975 58.7976 191.198 59.7599 190.615L79.8724 178.858C81.4121 177.983 83.6254 177.886 84.9727 178.664L181.782 235.115C182.552 235.601 182.937 236.281 182.937 236.961C182.937 237.836 182.359 238.613 181.397 239.196L161.381 250.952C160.515 251.438 159.552 251.633 158.494 251.633C157.724 251.73 156.858 251.535 156.28 251.147ZM80.8347 180.607L60.626 192.266C60.1449 192.558 60.0486 192.752 60.0486 192.849C60.0486 192.849 60.1448 192.946 60.3373 193.044L157.147 249.495C157.916 249.981 159.456 249.884 160.418 249.301L180.531 237.544C181.012 237.253 181.108 237.058 181.108 236.961C181.108 236.961 181.012 236.864 180.82 236.767L84.0104 180.315C83.6254 180.121 83.1443 180.024 82.6631 180.024C81.9895 180.121 81.3159 180.218 80.8347 180.607Z" fill="#2ECC71"/>
<path d="M98.7338 146.211C101.236 147.668 103.642 149.806 105.855 152.235C108.838 142.616 117.884 139.604 128.662 145.822C137.515 150.972 145.31 161.174 149.352 171.959C150.699 171.959 152.239 172.445 153.778 173.416C159.552 176.817 164.268 184.979 164.268 191.78C164.268 191.877 164.268 192.071 164.268 192.169C165.904 192.266 167.732 192.849 169.657 194.015C177.067 198.29 183.033 208.88 183.033 217.431C183.033 226.078 177.067 229.576 169.657 225.204L98.7338 183.91C89.7843 178.663 82.5669 166.032 82.5669 155.538C82.5669 145.239 89.7843 141.061 98.7338 146.211Z" fill="url(#paint3_linear_3925_228)"/>
<path d="M98.7338 146.211C100.177 147.086 101.621 148.154 102.968 149.32L110.859 144.657C115.189 141.547 121.541 141.742 128.566 145.823C137.419 150.972 145.214 161.174 149.256 171.959C150.603 171.959 152.143 172.445 153.682 173.417C159.456 176.817 164.171 184.979 164.171 191.78C164.171 191.878 164.171 192.072 164.171 192.169C165.807 192.266 167.636 192.849 169.56 194.015C176.97 198.29 182.937 208.881 182.937 217.431C182.937 221.706 181.493 224.718 179.087 226.176H178.991L159.552 237.544L155.318 216.945L98.5413 183.91C89.5918 178.663 82.3744 166.032 82.3744 155.539C82.5669 145.24 89.7842 141.062 98.7338 146.211Z" fill="url(#paint4_radial_3925_228)"/>
<path d="M67.5546 156.705L87.2821 145.142C90.2653 143.394 94.307 143.588 98.8299 146.211C100.273 147.086 101.717 148.154 103.064 149.32L110.955 144.657C115.286 141.547 121.637 141.742 128.662 145.823C137.515 150.972 145.31 161.174 149.352 171.959C150.699 171.959 152.239 172.445 153.778 173.417C159.552 176.817 164.268 184.979 164.268 191.78C164.268 191.878 164.268 192.072 164.268 192.169C165.904 192.266 167.732 192.849 169.657 194.015C177.066 198.29 183.033 208.881 183.033 217.431C183.033 221.706 181.589 224.718 179.184 226.176H179.087L159.649 237.544L155.414 216.945L98.6375 183.91C91.4201 179.635 85.2612 170.502 83.1441 161.66L67.5546 156.705Z" fill="#2ECC71"/>
<path d="M79.295 157.677C81.797 159.134 84.2028 161.272 86.4162 163.701C89.3994 154.082 98.4452 151.069 109.223 157.288C118.076 162.437 125.871 172.64 129.913 183.425C131.26 183.425 132.8 183.91 134.34 184.882C140.114 188.283 144.829 196.444 144.829 203.246C144.829 203.343 144.829 203.537 144.829 203.634C146.465 203.731 148.293 204.314 150.218 205.48C157.628 209.755 163.594 220.346 163.594 228.896C163.594 237.544 157.628 241.042 150.218 236.669L79.295 195.375C70.3454 190.129 63.1281 177.498 63.1281 167.004C63.1281 156.705 70.3454 152.43 79.295 157.677Z" fill="#87E8AE"/>
<path d="M85.7426 164.089C83.6255 161.66 81.2197 159.522 78.6214 158.065C74.291 155.539 70.2493 155.247 67.3623 156.802C70.3455 154.762 74.5797 154.956 79.295 157.676C81.7008 159.037 84.0104 160.98 86.0312 163.312C85.935 163.603 85.8388 163.798 85.7426 164.089Z" fill="#DDDDDD"/>
<path d="M163.017 229.382C163.017 220.735 157.05 210.241 149.64 205.966C147.716 204.8 145.887 204.217 144.251 204.12C144.251 204.023 144.251 203.829 144.251 203.731C144.251 196.93 139.536 188.768 133.762 185.368C132.126 184.396 130.683 184.007 129.336 183.91C125.198 173.125 117.499 162.923 108.646 157.773C102.198 153.984 96.2318 153.595 91.9976 156.025C96.328 153.207 102.487 153.401 109.319 157.385C118.173 162.534 125.967 172.737 130.009 183.522C131.356 183.522 132.896 184.007 134.436 184.979C140.21 188.38 144.925 196.541 144.925 203.343C144.925 203.44 144.925 203.634 144.925 203.731C146.561 203.829 148.389 204.412 150.314 205.577C157.724 209.853 163.69 220.443 163.69 228.994C163.69 233.463 162.151 236.475 159.552 237.835C161.669 236.281 163.017 233.366 163.017 229.382Z" fill="#DDDDDD"/>
<path d="M217.869 274.174L219.601 273.008L171.1 243.471L170.138 245.123L217.869 274.174Z" fill="#2ECC71"/>
<path d="M288.311 272.522C287.926 272.522 287.637 272.328 287.445 272.037C287.156 271.551 287.348 270.968 287.83 270.676L329.113 248.037L269.257 212.865C268.776 212.573 268.679 211.99 268.872 211.504C269.161 211.019 269.738 210.921 270.219 211.116L331.519 247.163C331.808 247.357 332 247.649 332 248.037C332 248.426 331.808 248.718 331.519 248.912L288.696 272.328C288.599 272.425 288.407 272.522 288.311 272.522Z" fill="#2ECC71"/>
<path d="M255.014 334.706C254.822 334.706 254.726 334.706 254.533 334.609L184.573 293.801C184.284 293.607 184.092 293.315 184.092 292.927C184.092 292.538 184.284 292.246 184.573 292.052L254.533 251.244C254.822 251.05 255.207 251.05 255.496 251.244L325.456 292.052C325.745 292.246 325.937 292.538 325.937 292.927C325.937 293.315 325.745 293.607 325.456 293.801L255.496 334.609C255.399 334.609 255.207 334.706 255.014 334.706ZM186.979 292.927L255.014 332.569L323.05 292.927L255.014 253.284L186.979 292.927Z" fill="#2ECC71"/>
<path d="M255.014 320.035L301.494 292.927L255.014 265.818L208.631 292.927L255.014 320.035Z" fill="#2ECC71"/>
<path d="M243.178 277.672C243.178 277.672 242.408 278.449 241.542 279.421C240.676 280.393 238.463 281.656 237.404 282.239C236.345 282.822 232.015 286.028 231.053 289.332C230.09 292.635 233.17 293.121 236.345 292.635C239.521 292.149 242.601 289.234 243.467 288.166C244.333 287.097 247.412 284.765 251.358 282.822C255.303 280.878 252.994 278.061 252.994 278.061L243.178 277.672Z" fill="#160A5B"/>
<path d="M271.951 288.166C271.951 288.166 272.529 289.623 272.721 291.566C272.818 293.51 273.01 297.59 273.106 298.756C273.202 299.922 273.106 302.934 270.989 305.655C268.776 308.375 267.717 309.541 264.926 308.375C262.136 307.209 262.328 302.448 262.906 300.019C263.483 297.59 264.06 292.149 264.06 291.566C264.06 290.983 264.253 290.595 264.253 290.595L271.951 288.166Z" fill="#160A5B"/>
<path d="M234.902 221.706C234.902 221.706 234.998 243.374 239.714 255.033C239.714 255.033 243.082 265.235 243.178 277.283C243.178 277.283 242.312 279.324 243.467 281.073C244.621 282.822 251.935 284.473 253.282 279.032C254.63 273.494 254.437 263.098 253.186 258.725C251.935 254.353 254.052 242.499 254.052 242.499C254.052 242.499 256.073 243.859 258.479 252.507C260.885 261.154 262.713 264.458 263.579 266.887C264.445 269.316 264.926 283.793 264.156 290.886C264.156 290.886 270.123 291.858 271.855 289.04C273.683 286.222 274.55 271.356 274.261 266.595C273.972 261.835 272.336 246.58 272.721 241.916C273.106 237.252 274.165 233.463 273.202 228.702C272.24 223.941 241.157 212.767 241.157 212.767L234.902 221.706Z" fill="#24126A"/>
<path d="M272.721 241.916C273.106 237.252 274.165 233.463 273.202 228.702C272.817 226.953 268.198 224.233 262.617 221.609C252.994 220.443 240.868 219.18 240.002 219.277C239.232 219.374 237.212 220.055 235.576 220.735L234.902 221.706C234.902 221.706 234.902 223.067 234.998 225.204C237.212 225.981 241.542 225.301 241.542 225.301C242.119 226.856 245.68 232.297 250.299 234.823C254.918 237.252 268.583 236.767 269.353 237.738C270.123 238.613 269.93 250.564 269.834 252.021C269.738 253.576 270.893 263.098 271.951 271.454C273.01 279.712 270.893 289.72 270.796 290.109C271.278 289.817 271.663 289.526 271.951 289.04C273.78 286.222 274.646 271.356 274.357 266.595C273.972 261.834 272.336 246.58 272.721 241.916Z" fill="#160A5B"/>
<path d="M247.22 151.069C247.22 151.069 240.195 152.527 237.885 153.013C237.5 153.11 237.212 153.401 237.019 153.693C236.346 155.442 234.517 160.688 235.576 168.656C236.923 178.372 236.249 184.785 236.249 184.785L232.593 201.594C232.593 201.594 228.166 217.626 228.455 218.111C228.839 218.597 237.597 225.69 240.387 224.816C243.178 223.941 242.312 222.289 242.312 222.289C242.312 222.289 244.333 234.046 254.341 234.143C264.445 234.24 272.625 234.532 274.453 230.451C276.282 226.37 274.55 209.075 272.914 202.177C271.278 195.278 267.428 181.578 267.428 181.578L282.537 165.449L270.219 155.442C270.219 155.442 267.332 149.709 266.177 148.932C264.926 148.154 264.253 148.737 264.253 148.737L247.22 151.069Z" fill="#453C9E"/>
<path d="M240.676 221.026C240.676 221.609 240.291 222.484 238.463 223.067C236.538 223.65 231.823 220.638 228.647 218.306C230.187 219.666 237.789 225.496 240.387 224.718C240.965 224.524 241.35 224.33 241.638 224.135C241.157 222.872 240.868 221.706 240.676 221.026Z" fill="#0F632D"/>
<path d="M274.453 229.091C272.529 233.366 263.868 233.171 253.282 232.977C250.588 232.977 248.471 232.103 246.739 230.937C248.567 232.783 250.973 234.143 254.437 234.143C264.541 234.24 272.721 234.532 274.55 230.451C275.127 229.091 275.319 226.37 275.319 222.969C275.223 225.69 274.935 227.925 274.453 229.091Z" fill="#0F632D"/>
<path d="M265.889 148.835C265.889 148.835 268.391 152.041 264.542 156.219C262.232 158.745 258.094 164.283 254.63 170.113C252.416 173.708 250.492 175.651 249.337 178.76C249.337 178.76 249.241 175.068 249.241 169.239C249.241 163.798 249.337 158.162 249.626 156.705C250.203 153.693 263.098 147.28 265.889 148.835Z" fill="#F0F6FF"/>
<path d="M256.073 158.065C256.073 158.065 254.726 158.842 254.245 158.745C253.764 158.648 252.32 157.191 252.32 157.191C252.32 157.191 248.663 156.996 248.278 155.442C247.893 153.887 247.701 152.235 247.316 151.458C246.931 150.584 245.488 146.6 245.488 145.045C245.488 143.491 245.68 140.576 245.006 139.021C244.333 137.467 243.852 122.309 258.286 123.086C272.721 123.864 267.91 138.924 267.91 138.924C267.91 138.924 268.968 139.41 268.295 141.353C267.621 143.296 267.428 143.491 267.14 144.462C266.755 145.434 266.659 146.017 265.696 146.794L265.408 148.543C265.408 148.543 265.985 151.264 264.157 153.887C262.328 156.608 256.073 158.065 256.073 158.065Z" fill="#FCD1C5"/>
<path d="M237.404 153.11C237.404 153.11 235.864 153.304 230.572 165.935C227.588 172.931 223.066 180.218 222.103 185.465C221.045 190.712 221.43 196.347 222.488 196.833C223.45 197.222 241.253 204.509 246.835 206.744C247.123 206.841 247.508 206.646 247.508 206.355L249.241 197.61L238.174 192.946C238.174 192.946 236.153 190.226 234.132 189.254C234.132 189.254 236.442 185.173 236.346 184.008C236.249 182.842 236.827 171.085 235.672 166.324C234.517 161.466 237.404 153.11 237.404 153.11Z" fill="#24126A"/>
<path d="M243.178 186.922C243.178 186.922 241.638 185.853 241.253 185.659C240.868 185.465 238.848 184.785 238.463 184.59C238.174 184.493 237.019 184.493 236.346 184.59C236.153 184.59 235.961 184.687 235.864 184.882C235.383 185.756 233.94 188.283 234.132 189.351C234.132 189.351 237.789 191.78 238.174 192.849L238.751 192.946C238.751 192.946 241.35 187.602 243.178 186.922Z" fill="#FCD1C5"/>
<path d="M272.914 202.177C272.529 200.525 272.048 198.485 271.47 196.347L248.663 205.577C248.663 205.577 255.207 214.128 267.14 213.933C270.412 213.836 272.817 212.767 274.55 211.796C274.068 207.909 273.491 204.411 272.914 202.177Z" fill="#24126A"/>
<path d="M282.633 165.449C282.633 165.449 276.667 166.13 271.663 173.708C266.659 181.287 262.906 190.129 262.906 190.129L262.713 191.1C262.232 193.724 259.441 195.181 257.035 194.015C252.031 191.586 244.525 187.894 243.178 186.825C243.178 186.825 238.655 189.254 237.212 195.181C236.153 199.942 236.346 199.942 236.346 199.942C236.346 199.942 256.169 209.95 263.964 210.047C271.759 210.144 282.152 184.688 283.403 179.344C284.654 174 286.001 167.004 282.633 165.449Z" fill="#24126A"/>
<path d="M282.633 165.449C282.633 165.449 276.667 166.13 271.663 173.708C266.659 181.287 262.906 190.129 262.906 190.129L262.713 191.1C262.232 193.724 259.441 195.181 257.035 194.015C252.031 191.586 244.525 187.894 243.178 186.825C243.178 186.825 238.655 189.254 237.212 195.181C236.153 199.942 236.346 199.942 236.346 199.942C236.346 199.942 256.169 209.95 263.964 210.047C271.759 210.144 282.152 184.688 283.403 179.344C284.654 174 286.001 167.004 282.633 165.449Z" fill="#4846A5"/>
<path d="M259.826 195.278C259.826 195.278 262.328 197.707 263.483 196.444C264.638 195.181 264.253 194.987 264.253 194.987C264.253 194.987 266.562 194.987 266.851 193.626C267.14 192.169 268.295 192.946 268.391 191.392C268.487 189.74 266.562 190.031 266.562 190.031L259.826 195.278Z" fill="#453C9E"/>
<path d="M256.843 193.918C256.843 193.918 257.517 193.238 258.479 192.558C259.441 191.78 260.885 188.671 261.173 188.38C261.462 188.088 264.541 185.853 265.985 185.853C267.428 185.853 266.274 187.505 265.985 187.7C265.6 187.894 264.157 188.574 264.157 188.574C264.157 188.574 262.617 189.74 262.521 189.934C262.328 190.129 266.562 189.74 267.236 190.129C267.91 190.517 267.717 191.683 267.236 191.975C266.755 192.266 266.37 192.266 266.37 192.266C266.37 192.266 266.851 193.529 265.504 194.112C264.253 194.695 263.964 194.307 263.964 194.307C263.964 194.307 263.772 196.541 261.751 196.056L256.843 193.918Z" fill="#FCD1C5"/>
<path d="M245.006 131.248C245.006 131.248 242.985 137.272 247.99 135.718C252.994 134.163 257.613 131.345 259.152 132.511C260.307 133.386 260.211 135.912 260.115 137.078C260.115 137.467 260.211 137.855 260.403 138.244L261.847 140.479C262.039 140.77 262.136 141.062 262.136 141.353L262.232 142.908C262.232 143.296 262.521 143.588 262.905 143.588H263.29C263.675 143.588 263.964 143.394 264.06 143.005L264.541 140.77C264.541 140.77 265.792 137.855 268.198 139.021C268.198 139.021 269.93 136.787 269.449 132.026C269.064 127.167 267.043 122.212 257.709 121.143C248.182 120.075 245.006 131.248 245.006 131.248Z" fill="#AA8383"/>
<path d="M258.479 163.409L257.132 162.243C257.132 162.243 255.784 163.312 255.303 164.478C254.726 165.644 255.207 169.239 255.207 169.239L254.726 169.919L254.245 168.947L253.956 164.575C253.956 164.575 254.533 161.369 254.533 161.271C254.63 161.174 257.228 161.66 257.228 161.66C257.228 161.66 257.998 162.535 258.479 163.409Z" fill="#C4CCD6"/>
<path d="M251.839 158.94C251.839 158.94 250.299 159.037 249.626 159.523C249.626 159.523 251.165 159.62 251.454 159.717C251.743 159.717 251.839 158.94 251.839 158.94Z" fill="#C4CCD6"/>
<path d="M254.726 159.425L257.132 161.854C257.132 161.854 254.918 162.826 254.245 164.769C254.245 164.769 251.55 165.255 251.261 164.186C251.069 163.215 251.358 160.688 251.069 159.522C250.78 158.454 254.726 159.425 254.726 159.425Z" fill="#24126A"/>
<path d="M251.358 164.089C251.358 164.089 250.877 166.13 250.299 167.004C249.722 167.878 249.241 168.753 249.241 168.753L249.048 180.898C249.048 180.898 253.667 171.862 254.726 170.016C254.726 170.016 254.726 165.547 254.245 164.769C253.86 163.895 251.358 164.089 251.358 164.089Z" fill="#24126A"/>
<path d="M263.675 146.503C260.596 154.859 252.32 157.191 252.32 157.191C252.32 157.191 253.763 158.648 254.245 158.745C254.726 158.842 256.073 158.065 256.073 158.065C256.073 158.065 262.328 156.705 264.253 154.081C266.081 151.458 265.504 148.737 265.504 148.737L265.792 146.989C264.349 147.28 263.675 146.503 263.675 146.503Z" fill="#E2B1A6"/>
<path d="M270.123 156.608C270.123 156.608 268.872 160.591 268.776 160.688C268.583 160.883 265.889 160.494 265.889 160.494L267.14 163.02C267.14 163.02 252.994 177.595 250.01 185.465C250.01 185.465 256.747 175.457 268.487 163.7L266.947 161.174L269.738 161.757L270.123 156.608Z" fill="#24126A"/>
<path d="M247.605 152.43L246.835 153.207L247.701 154.081L245.103 156.316C245.103 156.316 243.948 172.542 246.739 183.425C246.739 183.425 242.793 173.417 244.14 155.83L246.931 153.984L246.065 153.11L247.605 152.43Z" fill="#24126A"/>
<path d="M254.052 242.499L250.684 238.71C252.224 241.139 250.107 251.73 249.818 254.159C249.529 256.588 251.55 261.737 252.128 267.664C252.801 273.591 250.973 282.044 250.973 282.044C252.031 281.461 252.801 280.49 253.186 278.935C254.533 273.397 254.341 263 253.09 258.628C251.935 254.353 254.052 242.499 254.052 242.499Z" fill="#160A5B"/>
<path d="M263.964 210.047C271.759 210.144 282.152 184.688 283.403 179.344C283.595 178.469 283.788 177.498 283.98 176.623C283.98 176.72 281.767 182.161 279.746 187.117C277.629 192.072 266.947 206.84 261.655 207.618C256.843 208.395 239.906 199.845 236.634 198.193C236.249 200.039 236.442 200.039 236.442 200.039C236.442 200.039 256.169 209.95 263.964 210.047Z" fill="#0F632D"/>
<path d="M263.098 143.491C263.483 143.491 263.772 143.296 263.868 142.908L264.349 140.673C264.349 140.673 265.6 137.758 268.006 138.924C268.006 138.924 269.642 136.786 269.353 132.317C266.466 136.398 260.307 138.147 260.307 138.147L261.751 140.381C261.943 140.673 262.039 140.964 262.039 141.256L262.136 142.81C262.136 143.199 262.424 143.491 262.809 143.491H263.098Z" fill="#936D6D"/>
<path d="M196.794 33.4056L241.735 59.6395C243.852 60.9026 245.488 64.1089 245.488 66.9267V110.164C245.488 112.982 243.755 114.245 241.735 113.079L188.615 82.1811L196.794 33.4056Z" fill="#0F632D"/>
<path d="M155.03 8.72633L157.243 7.17173C157.917 6.68592 158.879 6.58876 159.937 7.26889L236.442 51.8665C238.559 53.1296 240.195 56.336 240.195 59.1537V102.391C240.195 103.848 239.714 104.917 238.944 105.403L236.634 107.055L236.538 105.403C236.442 105.403 236.442 105.306 236.346 105.306L159.841 60.7083C157.724 59.4452 156.088 56.2388 156.088 53.4211V10.0866C156.088 9.69796 156.088 9.30931 156.184 8.92066L155.03 8.72633Z" fill="#1E7742"/>
<path d="M240.002 57.3076L219.794 69.0642L214.693 66.1493L237.597 52.741C238.751 53.9069 239.617 55.6558 240.002 57.3076Z" fill="#34E27A"/>
<path d="M157.628 62.2629L234.132 106.86C236.249 108.124 237.885 106.763 237.885 103.946V60.7083C237.885 57.8906 236.153 54.587 234.132 53.4211L157.628 8.82347C155.511 7.56035 153.875 8.92063 153.875 11.7383V54.9757C153.875 57.7934 155.607 61.0969 157.628 62.2629Z" fill="#2ECC71"/>
<path d="M237.5 104.237V60.9997C237.5 58.1819 235.768 54.8784 233.747 53.7125L157.243 9.11499C156.377 8.62918 155.703 8.53201 155.03 8.8235C155.703 8.33769 156.665 8.33769 157.628 8.92067L234.132 53.5182C236.249 54.7813 237.885 57.9876 237.885 60.8053V104.043C237.885 105.791 237.308 106.86 236.346 107.249C237.019 106.666 237.5 105.694 237.5 104.237Z" fill="white"/>
<path d="M164.749 35.0573L227.203 71.3961C227.685 71.6876 228.07 71.7848 228.358 71.3961C228.358 71.299 228.358 71.2018 228.358 71.1046V61.5827C228.358 60.8054 227.877 59.9309 227.396 59.6394L164.46 23.0092C164.364 23.0092 164.364 22.912 164.268 22.912C163.787 23.0091 163.787 23.3978 163.787 24.0779L163.594 33.2112C163.69 33.9885 164.172 34.7658 164.749 35.0573Z" fill="white"/>
<path d="M164.653 55.8502L227.203 92.1889C227.685 92.4804 228.262 92.7719 228.358 92.1889C228.358 92.0918 228.358 91.9946 228.358 91.8974V82.3755C228.358 81.5982 227.877 80.7238 227.396 80.4323L164.46 43.802C164.364 43.802 164.364 43.7048 164.268 43.7048C163.787 43.5105 163.69 44.1907 163.69 44.8708V53.9069C163.69 54.6842 164.075 55.4615 164.653 55.8502Z" fill="white"/>
<path d="M164.268 22.9121C164.268 23.0092 164.268 23.1064 164.268 23.2036V32.7255C164.268 33.5028 164.749 34.3772 165.23 34.6687L228.166 71.2989C228.262 71.2989 228.262 71.2989 228.358 71.396C228.262 71.979 227.877 72.1733 227.396 71.8818L164.46 35.2517C163.883 34.9602 163.498 34.0857 163.498 33.3084V23.7865C163.498 23.1064 163.787 22.7178 164.268 22.9121Z" fill="#DDDDDD"/>
<path d="M164.268 43.705C164.268 43.8021 164.268 43.8993 164.268 43.9965V53.5184C164.268 54.2957 164.749 55.1701 165.23 55.4616L228.166 92.0918C228.262 92.0918 228.262 92.0918 228.358 92.189C228.262 92.772 227.877 92.9663 227.396 92.6748L164.46 56.0446C163.883 55.7531 163.498 54.8787 163.498 54.1014V44.5794C163.498 43.8993 163.787 43.6078 164.268 43.705Z" fill="#DDDDDD"/>
<path d="M210.363 57.1132L209.593 58.5706L208.15 56.7245L209.304 55.5585L207.668 53.8096L208.246 52.3522L209.786 54.1983L209.593 51.9635L211.421 53.0323L211.229 54.9756L212.769 54.8784L213.346 56.9188L211.71 56.7245L212.769 59.1536L211.325 59.3479L210.363 57.1132Z" fill="#2ECC71"/>
<path d="M203.146 52.9353L202.376 54.3927L200.932 52.5466L202.087 51.3807L200.451 49.6317L201.028 48.1743L202.568 50.0204L202.376 47.7856L204.204 48.8544L204.012 50.7977L205.551 50.7005L206.129 52.741L204.493 52.5466L205.551 54.9757L204.108 55.17L203.146 52.9353Z" fill="#2ECC71"/>
<path d="M195.928 48.7571L195.158 50.2145L193.715 48.3685L194.87 47.2026L193.234 45.4537L193.811 43.9963L195.351 45.8423L195.158 43.6077L196.987 44.6764L196.794 46.6196L198.334 46.5225L198.911 48.5628L197.275 48.3685L198.334 50.7975L196.89 50.9918L195.928 48.7571Z" fill="#2ECC71"/>
<path d="M188.711 44.482L187.941 45.9395L186.498 44.0934L187.652 42.9274L186.016 41.1785L186.594 39.7211L188.133 41.5672L187.941 39.3324L189.769 40.4012L189.577 42.3445L191.117 42.2473L191.694 44.2877L190.058 44.0934L191.117 46.5225L189.673 46.7168L188.711 44.482Z" fill="#2ECC71"/>
<path d="M181.493 40.3042L180.723 41.7616L179.28 39.9155L180.435 38.7496L178.799 37.0006L179.376 35.5432L180.916 37.3893L180.723 35.1545L182.552 36.2233L182.359 38.1666L183.899 38.0694L184.477 40.1099L182.841 39.9155L183.899 42.3446L182.456 42.5389L181.493 40.3042Z" fill="#2ECC71"/>
<path d="M210.363 78.0032L209.593 79.4606L208.15 77.6146L209.304 76.4486L207.572 74.6997L208.15 73.2423L209.689 75.0883L209.497 72.8536L211.325 73.9224L211.133 75.8656L212.673 75.7685L213.25 77.8089L211.614 77.6146L212.673 80.0436L211.229 80.2379L210.363 78.0032Z" fill="#2ECC71"/>
<path d="M203.146 73.728L202.376 75.1855L200.932 73.3394L202.087 72.1734L200.451 70.4245L201.028 68.967L202.568 70.8131L202.376 68.5784L204.204 69.6472L204.012 71.5904L205.551 71.4933L206.129 73.5337L204.493 73.3394L205.551 75.7684L204.108 75.9628L203.146 73.728Z" fill="#2ECC71"/>
<path d="M195.928 69.5499L195.158 71.0074L193.715 69.1613L194.87 67.9954L193.234 66.2465L193.811 64.789L195.351 66.6351L195.158 64.4004L196.987 65.4692L196.794 67.4124L198.334 67.3152L198.911 69.3556L197.275 69.1613L198.334 71.5903L196.89 71.7847L195.928 69.5499Z" fill="#2ECC71"/>
<path d="M188.711 65.3719L187.941 66.8294L186.498 64.9833L187.652 63.8173L186.016 62.0684L186.594 60.6109L188.133 62.457L187.941 60.2223L189.769 61.2911L189.577 63.2343L191.117 63.1372L191.694 65.1776L190.058 64.9833L191.117 67.4124L189.673 67.6067L188.711 65.3719Z" fill="#2ECC71"/>
<path d="M181.493 61.0967L180.723 62.5541L179.28 60.7081L180.435 59.5422L178.799 57.7933L179.376 56.3359L180.916 58.1819L180.723 55.9473L182.552 57.016L182.359 58.9592L183.899 58.8621L184.477 60.9024L182.841 60.7081L183.899 63.1371L182.456 63.3314L181.493 61.0967Z" fill="#2ECC71"/>
<path d="M84.8765 119.783C84.5878 119.783 84.2991 119.686 84.0104 119.589L43.7855 96.0754C43.2081 95.7839 42.9194 95.2009 42.9194 94.5208C42.9194 93.9378 43.2081 93.3548 43.7855 92.9662L84.0104 69.55C84.5878 69.2585 85.2614 69.2585 85.7426 69.55L125.968 92.9662C126.545 93.2577 126.834 93.8406 126.834 94.5208C126.834 95.1037 126.545 95.6867 125.968 96.0754L85.7426 119.491C85.4539 119.686 85.1652 119.783 84.8765 119.783ZM45.0365 94.6179L84.8765 117.84L124.717 94.6179L84.8765 71.3961L45.0365 94.6179Z" fill="#2ECC71"/>
<path d="M121.06 86.0676V78.6832L84.8765 98.893L48.6934 78.6832V86.0676L84.8765 107.152L121.06 86.0676Z" fill="#1D5D61"/>
<path d="M84.8765 99.8647L48.6934 78.6833L84.8765 57.599L121.06 78.6833L84.8765 99.8647Z" fill="#2ECC71"/>
<path opacity="0.5" d="M84.8765 99.1846L49.1745 78.3917L48.6934 78.6832L84.8765 99.8647L121.06 78.6832L120.579 78.3917L84.8765 99.1846Z" fill="white"/>
<path d="M84.8766 91.8002L62.4546 78.6833L84.8766 65.6636L107.202 78.6833L84.8766 91.8002Z" fill="#0F054C"/>
<path opacity="0.5" d="M84.8766 91.8002L62.4546 78.6833L84.8766 65.6636L107.202 78.6833L84.8766 91.8002Z" fill="url(#paint5_linear_3925_228)"/>
<path opacity="0.5" d="M84.8766 47.3969L107.202 60.5138V78.6832L84.8766 65.6634V47.3969Z" fill="url(#paint6_linear_3925_228)"/>
<path opacity="0.5" d="M84.8765 65.6634L62.4545 78.6832V60.5138L84.8765 47.3969V65.6634Z" fill="url(#paint7_linear_3925_228)"/>
<path opacity="0.5" d="M84.8765 73.5337L62.4545 60.5139L84.8765 47.3969L107.202 60.5139L84.8765 73.5337Z" fill="#0D562C"/>
<path opacity="0.5" d="M84.8766 73.5338V91.8003L107.202 78.6834V60.514L84.8766 73.5338Z" fill="#06A549"/>
<path opacity="0.5" d="M62.4546 60.514V78.6834L84.8766 91.8003V73.5338L62.4546 60.514Z" fill="#2ECC71"/>
<defs>
<linearGradient id="paint0_linear_3925_228" x1="195.902" y1="84.5836" x2="219.166" y2="44.6771" gradientUnits="userSpaceOnUse">
<stop stop-color="#C0BFF6"/>
<stop offset="0.2938" stop-color="#C5C4F7"/>
<stop offset="0.6399" stop-color="#D3D2F9"/>
<stop offset="1" stop-color="#E9E9FD"/>
</linearGradient>
<linearGradient id="paint1_linear_3925_228" x1="318.437" y1="113.556" x2="113.966" y2="113.556" gradientUnits="userSpaceOnUse">
<stop stop-color="#C0BFF6"/>
<stop offset="0.2938" stop-color="#C5C4F7"/>
<stop offset="0.6399" stop-color="#D3D2F9"/>
<stop offset="1" stop-color="#E9E9FD"/>
</linearGradient>
<linearGradient id="paint2_linear_3925_228" x1="331.895" y1="98.4017" x2="279.556" y2="98.4017" gradientUnits="userSpaceOnUse">
<stop stop-color="#C0BFF6"/>
<stop offset="0.2938" stop-color="#C5C4F7"/>
<stop offset="0.6399" stop-color="#D3D2F9"/>
<stop offset="1" stop-color="#E9E9FD"/>
</linearGradient>
<linearGradient id="paint3_linear_3925_228" x1="183.114" y1="205.424" x2="82.5788" y2="205.424" gradientUnits="userSpaceOnUse">
<stop stop-color="#5761D7"/>
<stop offset="0.1779" stop-color="#5C66D9"/>
<stop offset="0.3876" stop-color="#6A73DF"/>
<stop offset="0.6134" stop-color="#8289E8"/>
<stop offset="0.849" stop-color="#A3A7F5"/>
<stop offset="1" stop-color="#BCBEFF"/>
</linearGradient>
<radialGradient id="paint4_radial_3925_228" cx="0" cy="0" r="1" gradientUnits="userSpaceOnUse" gradientTransform="translate(159.487 174.956) rotate(180) scale(47.9572 48.4209)">
<stop stop-color="#2B237C"/>
<stop offset="1" stop-color="#180D5B"/>
</radialGradient>
<linearGradient id="paint5_linear_3925_228" x1="62.4735" y1="78.7171" x2="107.233" y2="78.7171" gradientUnits="userSpaceOnUse">
<stop stop-color="#42E8E0"/>
<stop offset="0.1507" stop-color="#43E3E0"/>
<stop offset="0.3285" stop-color="#45D5DF"/>
<stop offset="0.5199" stop-color="#49BDDD"/>
<stop offset="0.7209" stop-color="#4E9CDB"/>
<stop offset="0.9274" stop-color="#5472D8"/>
<stop offset="1" stop-color="#5761D7"/>
</linearGradient>
<linearGradient id="paint6_linear_3925_228" x1="84.8531" y1="63.0683" x2="107.233" y2="63.0683" gradientUnits="userSpaceOnUse">
<stop stop-color="#42E8E0"/>
<stop offset="0.1507" stop-color="#43E3E0"/>
<stop offset="0.3285" stop-color="#45D5DF"/>
<stop offset="0.5199" stop-color="#49BDDD"/>
<stop offset="0.7209" stop-color="#4E9CDB"/>
<stop offset="0.9274" stop-color="#5472D8"/>
<stop offset="1" stop-color="#5761D7"/>
</linearGradient>
<linearGradient id="paint7_linear_3925_228" x1="62.4733" y1="63.0681" x2="84.8537" y2="63.0681" gradientUnits="userSpaceOnUse">
<stop stop-color="#42E8E0"/>
<stop offset="0.1507" stop-color="#43E3E0"/>
<stop offset="0.3285" stop-color="#45D5DF"/>
<stop offset="0.5199" stop-color="#49BDDD"/>
<stop offset="0.7209" stop-color="#4E9CDB"/>
<stop offset="0.9274" stop-color="#5472D8"/>
<stop offset="1" stop-color="#5761D7"/>
</linearGradient>
</defs>
</svg>
