<svg width="30" height="30" viewBox="0 0 30 30" fill="none" xmlns="http://www.w3.org/2000/svg">
<path fill-rule="evenodd" clip-rule="evenodd" d="M14.3466 0.0273122C14.332 0.0424295 14.1822 0.0615605 14.0137 0.0697929C13.6783 0.0861993 13.3026 0.126102 13.0318 0.174061C12.936 0.190995 12.7856 0.21745 12.6975 0.232831C12.6094 0.248212 12.4715 0.274579 12.3911 0.291425C12.3107 0.308271 12.1853 0.334433 12.1125 0.349521C11.9892 0.375127 11.9031 0.396514 11.639 0.467208C11.5816 0.482589 11.4844 0.507462 11.4231 0.522462C11.1466 0.590197 10.2526 0.903558 9.89105 1.05942C9.18566 1.36358 8.12566 1.92295 7.64668 2.24378C7.54818 2.30976 7.40063 2.40749 7.31879 2.46096C7.23698 2.51446 7.1555 2.57326 7.13772 2.59166C7.11998 2.61005 7.02399 2.68271 6.9244 2.75314C6.82482 2.82354 6.73707 2.88937 6.72941 2.89942C6.72175 2.90947 6.67161 2.94937 6.61799 2.9881C6.56437 3.02683 6.51423 3.06639 6.50657 3.07599C6.49891 3.0856 6.44877 3.12515 6.39514 3.16391C6.34152 3.20265 6.27885 3.25538 6.25587 3.28107C6.23288 3.30677 6.17021 3.35962 6.11659 3.39853C6.06296 3.4374 5.98775 3.5032 5.94945 3.54475C5.91115 3.58629 5.83594 3.65265 5.78232 3.69223C5.65541 3.78592 4.47956 5.02261 4.39047 5.15609C4.35284 5.21248 4.28975 5.29159 4.25025 5.33187C4.21075 5.37215 4.14818 5.45125 4.11122 5.50765C4.07423 5.56405 4.02397 5.62997 3.99955 5.65414C3.97512 5.67831 3.92497 5.74423 3.88815 5.80062C3.8513 5.85702 3.81369 5.90975 3.80455 5.91781C3.79542 5.92587 3.75781 5.9786 3.72099 6.035C3.68416 6.0914 3.64622 6.14413 3.63667 6.15219C3.62711 6.16024 3.56452 6.25253 3.49758 6.35727C3.43062 6.462 3.36154 6.56296 3.34404 6.58162C3.32655 6.60032 3.27064 6.68601 3.21978 6.77205C3.16894 6.85813 3.07601 7.01332 3.01328 7.11691C2.82656 7.42526 2.70695 7.65756 2.40126 8.30552C2.12733 8.88616 2.02345 9.12361 1.88554 9.48473C1.85323 9.56931 1.80211 9.70115 1.77192 9.7777C1.69562 9.97126 1.42631 10.8645 1.37664 11.0887C1.36238 11.1532 1.33932 11.2521 1.32539 11.3085C1.27107 11.5285 1.23722 11.6806 1.21132 11.8212C1.19647 11.9017 1.17162 12.0336 1.15608 12.1141C1.14056 12.1947 1.11588 12.3364 1.10126 12.4291C1.08664 12.5218 1.06148 12.68 1.04538 12.7806C0.999781 13.0655 0.961842 13.4606 0.946242 13.8134C0.938415 13.9906 0.920225 14.1481 0.905851 14.1635C0.871227 14.2003 0.871227 15.7995 0.905851 15.8363C0.920225 15.8516 0.938415 16.0092 0.946242 16.1864C0.961842 16.5392 0.999781 16.9343 1.04538 17.2192C1.06148 17.3199 1.08664 17.4781 1.10126 17.5707C1.11588 17.6634 1.14056 17.8051 1.15608 17.8857C1.17162 17.9662 1.19647 18.0981 1.21132 18.1786C1.23644 18.3149 1.25592 18.4022 1.32411 18.684C1.33873 18.7444 1.36238 18.8466 1.37664 18.9111C1.42781 19.1422 1.69673 20.0317 1.7752 20.2294C1.80715 20.31 1.8583 20.4418 1.8888 20.5224C2.1434 21.1946 2.70575 22.3751 3.01328 22.8829C3.07601 22.9865 3.16894 23.1417 3.21978 23.2277C3.27064 23.3138 3.32655 23.3995 3.34404 23.4182C3.36154 23.4368 3.43062 23.5378 3.49758 23.6425C3.56452 23.7473 3.62711 23.8396 3.63667 23.8476C3.64622 23.8557 3.68416 23.9084 3.72099 23.9648C3.75781 24.0212 3.79542 24.0739 3.80455 24.082C3.81369 24.09 3.8513 24.1428 3.88815 24.1992C3.92497 24.2556 3.97512 24.3215 3.99955 24.3457C4.02397 24.3698 4.07423 24.4358 4.11122 24.4922C4.14818 24.5485 4.21075 24.6276 4.25025 24.6679C4.28975 24.7082 4.35284 24.7873 4.39047 24.8437C4.47956 24.9772 5.65541 26.2139 5.78232 26.3076C5.83594 26.3472 5.91115 26.4135 5.94945 26.4551C5.98775 26.4966 6.06296 26.5624 6.11659 26.6013C6.17021 26.6402 6.23288 26.693 6.25587 26.7187C6.27885 26.7444 6.34152 26.7972 6.39514 26.8359C6.44877 26.8746 6.49891 26.9142 6.50657 26.9238C6.51423 26.9334 6.56437 26.973 6.61799 27.0117C6.67161 27.0504 6.72175 27.0903 6.72941 27.1004C6.73707 27.1104 6.82482 27.1763 6.9244 27.2467C7.02399 27.3171 7.11998 27.3897 7.13772 27.4081C7.1555 27.4265 7.23698 27.4853 7.31879 27.5388C7.40063 27.5923 7.54818 27.69 7.64668 27.756C7.93986 27.9524 8.16073 28.0782 8.77682 28.3997C9.62413 28.8419 9.92097 28.9726 10.6849 29.2395C11.0679 29.3734 11.2775 29.4414 11.4092 29.4746C11.527 29.5044 11.7019 29.5496 11.8618 29.5917C12.0344 29.637 12.4366 29.7214 12.6975 29.767C12.7856 29.7824 12.936 29.8088 13.0318 29.8257C13.3026 29.8737 13.6783 29.9136 14.0137 29.93C14.1822 29.9382 14.332 29.9574 14.3466 29.9725C14.3616 29.9881 14.6599 30 15.035 30C15.661 30 15.6986 29.9969 15.7259 29.9433C15.7454 29.9049 15.7547 28.1613 15.7547 24.5133C15.7547 19.3597 15.7526 19.1379 15.7041 19.0917C15.6595 19.0493 15.5332 19.0427 14.6247 19.036L13.5959 19.0282V17.1386V15.2489L14.6394 15.2412C15.3128 15.2363 15.6932 15.2228 15.7119 15.2032C15.7307 15.1834 15.747 14.6134 15.7587 13.5702C15.7753 12.0821 15.7887 11.8027 15.8628 11.411C15.9801 10.7903 16.2033 10.2141 16.5138 9.73018C16.8477 9.20969 17.4589 8.70888 18.0375 8.48166C18.0995 8.45728 18.2036 8.41582 18.2687 8.38952C18.3338 8.36324 18.4309 8.33086 18.4846 8.31762C18.5382 8.30438 18.6385 8.27895 18.7074 8.26108C19.2697 8.11541 19.4016 8.10768 21.3816 8.10396L23.2618 8.10044V9.9901V11.8798L22.1058 11.8964C21.4101 11.9064 20.9054 11.9257 20.8384 11.9449C20.5423 12.0298 20.4569 12.0732 20.3357 12.2007C20.0998 12.4488 20.0688 12.6736 20.0627 14.1796L20.0584 15.2196L21.6499 15.2272C22.878 15.233 23.2475 15.2431 23.2678 15.2711C23.2943 15.3079 23.2767 15.6492 23.2198 16.2011C23.204 16.3542 23.1791 16.6046 23.1643 16.7577C23.1496 16.9108 23.1245 17.1613 23.1086 17.3144C23.0927 17.4674 23.0677 17.7179 23.0529 17.871C23.0125 18.2906 22.974 18.6565 22.9495 18.8525L22.9276 19.0282L21.493 19.0429L20.0584 19.0575L20.0514 24.0363C20.0462 27.6584 20.0528 29.0205 20.0752 29.0351C20.1045 29.0541 20.1851 29.027 20.525 28.8836C20.6054 28.8497 20.7182 28.8037 20.7756 28.7813C20.8982 28.7335 22.0095 28.1434 22.2749 27.9851C22.3756 27.9251 22.5448 27.8178 22.651 27.7468C23.133 27.4241 23.2867 27.3183 23.315 27.2896C23.3317 27.2727 23.3893 27.2269 23.4429 27.1879C23.4965 27.149 23.5467 27.1092 23.5543 27.0996C23.562 27.09 23.6121 27.0504 23.6657 27.0117C23.7194 26.973 23.7695 26.9334 23.7772 26.9238C23.7848 26.9142 23.835 26.8746 23.8886 26.8359C23.9422 26.7972 24.0049 26.7444 24.0279 26.7187C24.0508 26.693 24.1135 26.6402 24.1671 26.6013C24.2208 26.5624 24.296 26.4966 24.3343 26.4551C24.3726 26.4135 24.4478 26.3472 24.5014 26.3076C24.6283 26.2139 25.8042 24.9772 25.8933 24.8437C25.9309 24.7873 25.994 24.7082 26.0335 24.6679C26.073 24.6276 26.1356 24.5485 26.1725 24.4922C26.2095 24.4358 26.2598 24.3698 26.2842 24.3457C26.3086 24.3215 26.3588 24.2556 26.3956 24.1992C26.4324 24.1428 26.47 24.09 26.4792 24.082C26.4883 24.0739 26.5259 24.0212 26.5627 23.9648C26.5996 23.9084 26.6375 23.8557 26.6471 23.8476C26.6566 23.8396 26.7192 23.7473 26.7862 23.6425C26.8531 23.5378 26.9222 23.4368 26.9397 23.4182C26.9572 23.3995 27.0131 23.3138 27.064 23.2277C27.1148 23.1417 27.2077 22.9865 27.2705 22.8829C27.4572 22.5745 27.5768 22.3422 27.8825 21.6943C28.3029 20.8031 28.4271 20.4909 28.681 19.6874C28.8082 19.2847 28.8729 19.0642 28.9045 18.9257C28.9328 18.8018 28.9758 18.6179 29.0158 18.4496C29.0321 18.3812 29.0571 18.2625 29.0715 18.186C29.0859 18.1094 29.1107 17.9776 29.1268 17.893C29.1428 17.8084 29.1679 17.6634 29.1825 17.5707C29.1971 17.4781 29.2223 17.3198 29.2384 17.2192C29.2863 16.9198 29.3226 16.5312 29.3375 16.1571C29.3453 15.9638 29.3634 15.793 29.3778 15.7777C29.4125 15.741 29.4125 14.2004 29.3779 14.1635C29.3635 14.1482 29.3453 13.9906 29.3375 13.8134C29.3219 13.4606 29.284 13.0655 29.2384 12.7806C29.2223 12.68 29.1971 12.5218 29.1825 12.4291C29.1679 12.3364 29.1428 12.1914 29.1268 12.1068C29.1107 12.0222 29.0859 11.8904 29.0715 11.8138C29.0571 11.7373 29.0327 11.6219 29.0171 11.5575C28.9642 11.3386 28.9331 11.2062 28.9071 11.0887C28.8427 10.7979 28.5447 9.85762 28.3965 9.4774C28.1074 8.73551 27.5755 7.62067 27.2705 7.11691C27.2077 7.01332 27.1148 6.85813 27.064 6.77205C27.0131 6.68601 26.9572 6.60032 26.9397 6.58162C26.9222 6.56296 26.8531 6.462 26.7862 6.35727C26.7192 6.25253 26.6566 6.16024 26.6471 6.15219C26.6375 6.14413 26.5996 6.0914 26.5627 6.035C26.5259 5.9786 26.4883 5.92587 26.4792 5.91781C26.47 5.90975 26.4324 5.85702 26.3956 5.80062C26.3588 5.74423 26.3086 5.67831 26.2842 5.65414C26.2598 5.62997 26.2095 5.56405 26.1725 5.50765C26.1356 5.45125 26.073 5.37215 26.0335 5.33187C25.994 5.29159 25.9309 5.21248 25.8933 5.15609C25.8042 5.02261 24.6283 3.78592 24.5014 3.69223C24.4478 3.65265 24.3726 3.58629 24.3343 3.54475C24.296 3.5032 24.2208 3.4374 24.1671 3.39853C24.1135 3.35962 24.0508 3.30677 24.0279 3.28107C24.0049 3.25538 23.9422 3.20265 23.8886 3.16391C23.835 3.12515 23.7848 3.0856 23.7772 3.07599C23.7695 3.06639 23.7194 3.02683 23.6657 2.9881C23.6121 2.94937 23.562 2.90982 23.5543 2.90021C23.5467 2.8906 23.4965 2.85085 23.4429 2.81188C23.3893 2.77289 23.3317 2.72712 23.315 2.71016C23.2867 2.68151 23.133 2.57566 22.651 2.25301C22.5448 2.18196 22.3756 2.07474 22.2749 2.01471C22.0095 1.85645 20.8982 1.26634 20.7756 1.21853C20.6759 1.17962 20.555 1.12929 20.2325 0.992416C19.9808 0.88557 19.0829 0.577306 18.8676 0.52381C18.8101 0.509542 18.713 0.484669 18.6517 0.468555C18.5904 0.452442 18.487 0.425254 18.4219 0.408116C18.3568 0.391006 18.2408 0.364199 18.1642 0.348584C18.0876 0.332969 17.9685 0.307861 17.8996 0.292773C17.604 0.228114 17.4563 0.199843 17.2728 0.17286C16.902 0.118309 16.5752 0.0847344 16.27 0.0697929C16.1015 0.0615605 15.9517 0.0424295 15.9372 0.0273122C15.9021 -0.00910406 14.3816 -0.00910406 14.3466 0.0273122Z" fill="black"/>
</svg>
