<svg width="30" height="30" viewBox="0 0 30 30" fill="none" xmlns="http://www.w3.org/2000/svg">
<path fill-rule="evenodd" clip-rule="evenodd" d="M14.0278 0.0273122C14.0127 0.0424295 13.8566 0.0615605 13.6811 0.0697929C13.3317 0.0861993 12.9404 0.126102 12.6582 0.174061C12.5585 0.190995 12.4018 0.21745 12.31 0.232831C12.2183 0.248212 12.0746 0.274579 11.9909 0.291425C11.9071 0.308271 11.7765 0.334433 11.7007 0.349521C11.5722 0.375127 11.4825 0.396514 11.2074 0.467208C11.1476 0.482589 11.0464 0.507462 10.9825 0.522462C10.6945 0.590197 9.76321 0.903558 9.38663 1.05942C8.65185 1.36358 7.54768 1.92295 7.04875 2.24378C6.94614 2.30976 6.79244 2.40749 6.70719 2.46096C6.62197 2.51446 6.5371 2.57326 6.51859 2.59166C6.5001 2.61005 6.40011 2.68271 6.29638 2.75314C6.19264 2.82354 6.10124 2.88937 6.09326 2.89942C6.08528 2.90947 6.03305 2.94937 5.9772 2.9881C5.92134 3.02683 5.86911 3.06639 5.86113 3.07599C5.85315 3.0856 5.80092 3.12515 5.74506 3.16391C5.68921 3.20265 5.62392 3.25538 5.59998 3.28107C5.57604 3.30677 5.51076 3.35962 5.4549 3.39853C5.39904 3.4374 5.3207 3.5032 5.2808 3.54475C5.2409 3.58629 5.16256 3.65265 5.1067 3.69223C4.9745 3.78592 3.74966 5.02261 3.65687 5.15609C3.61766 5.21248 3.55194 5.29159 3.5108 5.33187C3.46965 5.37215 3.40448 5.45125 3.36598 5.50765C3.32744 5.56405 3.2751 5.62997 3.24965 5.65414C3.2242 5.67831 3.17197 5.74423 3.13361 5.80062C3.09522 5.85702 3.05605 5.90975 3.04653 5.91781C3.03702 5.92587 2.99784 5.9786 2.95948 6.035C2.92112 6.0914 2.8816 6.14413 2.87165 6.15219C2.8617 6.16024 2.7965 6.25253 2.72677 6.35727C2.65702 6.462 2.58506 6.56296 2.56683 6.58162C2.54861 6.60032 2.49037 6.68601 2.43739 6.77205C2.38444 6.85813 2.28764 7.01332 2.22229 7.11691C2.02779 7.42526 1.9032 7.65756 1.58477 8.30552C1.29942 8.88616 1.19122 9.12361 1.04756 9.48473C1.0139 9.56931 0.960655 9.70115 0.929202 9.7777C0.849725 9.97126 0.569194 10.8645 0.517458 11.0887C0.502601 11.1532 0.478576 11.2521 0.464068 11.3085C0.407485 11.5285 0.37223 11.6806 0.345245 11.8212C0.329779 11.9017 0.303897 12.0336 0.287706 12.1141C0.271543 12.1947 0.245835 12.3364 0.230601 12.4291C0.215367 12.5218 0.189166 12.68 0.172394 12.7806C0.124894 13.0655 0.0853737 13.4606 0.0691245 13.8134C0.0609708 13.9906 0.0420231 14.1481 0.0270506 14.1635C-0.00901687 14.2003 -0.00901687 15.7995 0.0270506 15.8363C0.0420231 15.8516 0.0609708 16.0092 0.0691245 16.1864C0.0853737 16.5392 0.124894 16.9343 0.172394 17.2192C0.189166 17.3199 0.215367 17.4781 0.230601 17.5707C0.245835 17.6634 0.271543 17.8051 0.287706 17.8857C0.303897 17.9662 0.329779 18.0981 0.345245 18.1786C0.371418 18.3149 0.391701 18.4022 0.462733 18.684C0.477966 18.7444 0.502601 18.8466 0.517458 18.9111C0.570761 19.1422 0.850886 20.0317 0.932625 20.2294C0.965907 20.31 1.01918 20.4418 1.05095 20.5224C1.31617 21.1946 1.90195 22.3751 2.22229 22.8829C2.28764 22.9865 2.38444 23.1417 2.43739 23.2277C2.49037 23.3138 2.54861 23.3995 2.56683 23.4182C2.58506 23.4368 2.65702 23.5378 2.72677 23.6425C2.7965 23.7473 2.8617 23.8396 2.87165 23.8476C2.8816 23.8557 2.92112 23.9084 2.95948 23.9648C2.99784 24.0212 3.03702 24.0739 3.04653 24.082C3.05605 24.09 3.09522 24.1428 3.13361 24.1992C3.17197 24.2556 3.2242 24.3215 3.24965 24.3457C3.2751 24.3698 3.32744 24.4358 3.36598 24.4922C3.40448 24.5485 3.46965 24.6276 3.5108 24.6679C3.55194 24.7082 3.61766 24.7873 3.65687 24.8437C3.74966 24.9772 4.9745 26.2139 5.1067 26.3076C5.16256 26.3472 5.2409 26.4135 5.2808 26.4551C5.3207 26.4966 5.39904 26.5624 5.4549 26.6013C5.51076 26.6402 5.57604 26.693 5.59998 26.7187C5.62392 26.7444 5.68921 26.7972 5.74506 26.8359C5.80092 26.8746 5.85315 26.9142 5.86113 26.9238C5.86911 26.9334 5.92134 26.973 5.9772 27.0117C6.03305 27.0504 6.08528 27.0903 6.09326 27.1004C6.10124 27.1104 6.19264 27.1763 6.29638 27.2467C6.40011 27.3171 6.5001 27.3897 6.51859 27.4081C6.5371 27.4265 6.62197 27.4853 6.70719 27.5388C6.79244 27.5923 6.94614 27.69 7.04875 27.756C7.35414 27.9524 7.58422 28.0782 8.22597 28.3997C9.10859 28.8419 9.41779 28.9726 10.2136 29.2395C10.6125 29.3734 10.8309 29.4414 10.968 29.4746C11.0908 29.5044 11.2729 29.5496 11.4395 29.5917C11.6193 29.637 12.0382 29.7214 12.31 29.767C12.4018 29.7824 12.5585 29.8088 12.6582 29.8257C12.9404 29.8737 13.3317 29.9136 13.6811 29.93C13.8566 29.9382 14.0127 29.9574 14.0278 29.9725C14.0434 29.9881 14.3542 30 14.745 30C15.397 30 15.4362 29.9969 15.4646 29.9433C15.485 29.9049 15.4946 28.1613 15.4946 24.5133C15.4946 19.3597 15.4924 19.1379 15.4419 19.0917C15.3954 19.0493 15.2639 19.0427 14.3175 19.036L13.2458 19.0282V17.1386V15.2489L14.3328 15.2412C15.0343 15.2363 15.4306 15.2228 15.45 15.2032C15.4696 15.1834 15.4866 14.6134 15.4987 13.5702C15.516 12.0821 15.5301 11.8027 15.6072 11.411C15.7294 10.7903 15.9619 10.2141 16.2853 9.73018C16.6332 9.20969 17.2699 8.70888 17.8726 8.48166C17.9371 8.45728 18.0455 8.41582 18.1133 8.38952C18.1811 8.36324 18.2824 8.33086 18.3382 8.31762C18.3941 8.30438 18.4985 8.27895 18.5703 8.26108C19.156 8.11541 19.2935 8.10768 21.3559 8.10396L23.3145 8.10044V9.9901V11.8798L22.1103 11.8964C21.3857 11.9064 20.8599 11.9257 20.7901 11.9449C20.4817 12.0298 20.3927 12.0732 20.2665 12.2007C20.0208 12.4488 19.9885 12.6736 19.9821 14.1796L19.9776 15.2196L21.6355 15.2272C22.9147 15.233 23.2996 15.2431 23.3207 15.2711C23.3484 15.3079 23.33 15.6492 23.2708 16.2011C23.2543 16.3542 23.2283 16.6046 23.213 16.7577C23.1976 16.9108 23.1715 17.1613 23.1549 17.3144C23.1384 17.4674 23.1123 17.7179 23.0969 17.871C23.0548 18.2906 23.0147 18.6565 22.9892 18.8525L22.9663 19.0282L21.472 19.0429L19.9776 19.0575L19.9703 24.0363C19.965 27.6584 19.9717 29.0205 19.9952 29.0351C20.0256 29.0541 20.1096 29.027 20.4637 28.8836C20.5475 28.8497 20.6649 28.8037 20.7247 28.7813C20.8524 28.7335 22.01 28.1434 22.2865 27.9851C22.3914 27.9251 22.5676 27.8178 22.6782 27.7468C23.1804 27.4241 23.3405 27.3183 23.3699 27.2896C23.3873 27.2727 23.4473 27.2269 23.5031 27.1879C23.559 27.149 23.6112 27.1092 23.6192 27.0996C23.6272 27.09 23.6794 27.0504 23.7353 27.0117C23.7911 26.973 23.8434 26.9334 23.8513 26.9238C23.8593 26.9142 23.9115 26.8746 23.9674 26.8359C24.0233 26.7972 24.0885 26.7444 24.1125 26.7187C24.1364 26.693 24.2017 26.6402 24.2576 26.6013C24.3134 26.5624 24.3918 26.4966 24.4317 26.4551C24.4716 26.4135 24.5499 26.3472 24.6058 26.3076C24.738 26.2139 25.9628 24.9772 26.0556 24.8437C26.0948 24.7873 26.1605 24.7082 26.2017 24.6679C26.2428 24.6276 26.308 24.5485 26.3465 24.4922C26.385 24.4358 26.4374 24.3698 26.4628 24.3457C26.4883 24.3215 26.5405 24.2556 26.5789 24.1992C26.6172 24.1428 26.6564 24.09 26.6659 24.082C26.6755 24.0739 26.7146 24.0212 26.753 23.9648C26.7913 23.9084 26.8309 23.8557 26.8408 23.8476C26.8508 23.8396 26.916 23.7473 26.9857 23.6425C27.0555 23.5378 27.1274 23.4368 27.1456 23.4182C27.1639 23.3995 27.2221 23.3138 27.2751 23.2277C27.328 23.1417 27.4248 22.9865 27.4902 22.8829C27.6847 22.5745 27.8093 22.3422 28.1277 21.6943C28.5657 20.8031 28.6951 20.4909 28.9595 19.6874C29.092 19.2847 29.1594 19.0642 29.1923 18.9257C29.2218 18.8018 29.2666 18.6179 29.3083 18.4496C29.3252 18.3812 29.3513 18.2625 29.3663 18.186C29.3812 18.1094 29.4072 17.9776 29.4238 17.893C29.4405 17.8084 29.4666 17.6634 29.4819 17.5707C29.4971 17.4781 29.5233 17.3198 29.5401 17.2192C29.59 16.9198 29.6278 16.5312 29.6434 16.1571C29.6514 15.9638 29.6703 15.793 29.6853 15.7777C29.7214 15.741 29.7215 14.2004 29.6854 14.1635C29.6704 14.1482 29.6515 13.9906 29.6433 13.8134C29.6271 13.4606 29.5876 13.0655 29.5401 12.7806C29.5233 12.68 29.4971 12.5218 29.4819 12.4291C29.4666 12.3364 29.4405 12.1914 29.4238 12.1068C29.4072 12.0222 29.3812 11.8904 29.3663 11.8138C29.3513 11.7373 29.3258 11.6219 29.3096 11.5575C29.2545 11.3386 29.2221 11.2062 29.195 11.0887C29.1279 10.7979 28.8176 9.85762 28.6632 9.4774C28.3619 8.73551 27.8079 7.62067 27.4902 7.11691C27.4248 7.01332 27.328 6.85813 27.2751 6.77205C27.2221 6.68601 27.1639 6.60032 27.1456 6.58162C27.1274 6.56296 27.0555 6.462 26.9857 6.35727C26.916 6.25253 26.8508 6.16024 26.8408 6.15219C26.8309 6.14413 26.7913 6.0914 26.753 6.035C26.7146 5.9786 26.6755 5.92587 26.6659 5.91781C26.6564 5.90975 26.6172 5.85702 26.5789 5.80062C26.5405 5.74423 26.4883 5.67831 26.4628 5.65414C26.4374 5.62997 26.385 5.56405 26.3465 5.50765C26.308 5.45125 26.2428 5.37215 26.2017 5.33187C26.1605 5.29159 26.0948 5.21248 26.0556 5.15609C25.9628 5.02261 24.738 3.78592 24.6058 3.69223C24.5499 3.65265 24.4716 3.58629 24.4317 3.54475C24.3918 3.5032 24.3134 3.4374 24.2576 3.39853C24.2017 3.35962 24.1364 3.30677 24.1125 3.28107C24.0885 3.25538 24.0233 3.20265 23.9674 3.16391C23.9115 3.12515 23.8593 3.0856 23.8513 3.07599C23.8434 3.06639 23.7911 3.02683 23.7353 2.9881C23.6794 2.94937 23.6272 2.90982 23.6192 2.90021C23.6112 2.8906 23.559 2.85085 23.5031 2.81188C23.4473 2.77289 23.3873 2.72712 23.3699 2.71016C23.3405 2.68151 23.1804 2.57566 22.6782 2.25301C22.5676 2.18196 22.3914 2.07474 22.2865 2.01471C22.01 1.85645 20.8524 1.26634 20.7247 1.21853C20.6208 1.17962 20.4949 1.12929 20.159 0.992416C19.8968 0.88557 18.9615 0.577306 18.7372 0.52381C18.6774 0.509542 18.5761 0.484669 18.5123 0.468555C18.4485 0.452442 18.3407 0.425254 18.2729 0.408116C18.2051 0.391006 18.0843 0.364199 18.0045 0.348584C17.9247 0.332969 17.8007 0.307861 17.7289 0.292773C17.4209 0.228114 17.2671 0.199843 17.076 0.17286C16.6897 0.118309 16.3493 0.0847344 16.0314 0.0697929C15.8559 0.0615605 15.6998 0.0424295 15.6847 0.0273122C15.6482 -0.00910406 14.0643 -0.00910406 14.0278 0.0273122Z" fill="#2ECC71"/>
</svg>
