<svg width="29" height="30" viewBox="0 0 29 30" fill="none" xmlns="http://www.w3.org/2000/svg">
<path fill-rule="evenodd" clip-rule="evenodd" d="M13.7553 0.0274001C13.7407 0.0425174 13.5909 0.0615019 13.4224 0.0695586C13.1139 0.0843536 12.8178 0.11787 12.4962 0.174384C12.4005 0.1912 12.25 0.217538 12.1619 0.232919C12.0738 0.2483 11.9359 0.274668 11.8555 0.291513C11.7751 0.308359 11.6497 0.334522 11.577 0.349609C11.5042 0.364727 11.3945 0.390479 11.3332 0.406885C11.2719 0.423262 11.1716 0.448956 11.1104 0.463956C10.893 0.517218 9.72997 0.909213 9.52955 0.996782C9.45676 1.02857 9.33141 1.08221 9.25099 1.11602C9.09502 1.1815 8.31587 1.56307 8.19943 1.63095C8.16113 1.6533 8.02951 1.72564 7.90694 1.79173C7.5283 1.99587 6.36911 2.75493 6.30523 2.84051C6.29757 2.85079 6.24743 2.89087 6.19381 2.9296C6.14019 2.96833 6.09005 3.00788 6.08239 3.01749C6.07473 3.0271 6.02459 3.06665 5.97096 3.10541C5.91734 3.14414 5.85467 3.19688 5.83169 3.22257C5.8087 3.24826 5.74603 3.30112 5.69241 3.34002C5.63878 3.3789 5.56357 3.4447 5.52527 3.48624C5.48697 3.52779 5.41176 3.59412 5.35814 3.63364C5.30451 3.67319 5.13353 3.83919 4.97818 4.00249C4.82283 4.16582 4.65843 4.32262 4.61285 4.35092C4.56728 4.37922 4.508 4.44156 4.48112 4.48943C4.45424 4.53734 4.31769 4.69703 4.17769 4.84437C4.03769 4.9917 3.89236 5.15837 3.85478 5.21477C3.81718 5.27117 3.75414 5.35027 3.71464 5.39055C3.67514 5.43084 3.61258 5.50994 3.57561 5.56634C3.53862 5.62273 3.48837 5.68865 3.46394 5.71282C3.43951 5.73699 3.38937 5.80291 3.35254 5.85931C3.31569 5.9157 3.27809 5.96844 3.26895 5.9765C3.25981 5.98455 3.22221 6.03729 3.18538 6.09368C3.14856 6.15008 3.11045 6.20282 3.10067 6.21087C3.06811 6.23777 2.63233 6.9348 2.45648 7.24134C2.08669 7.88585 1.68548 8.71932 1.46113 9.30904C1.42893 9.39362 1.37787 9.52546 1.34765 9.60201C1.26439 9.8128 0.891676 11.036 0.841034 11.2646C0.826772 11.3291 0.802343 11.4345 0.786771 11.499C0.771172 11.5635 0.746687 11.6788 0.732313 11.7553C0.717967 11.8319 0.693092 11.9637 0.677075 12.0483C0.661058 12.1329 0.635987 12.2779 0.621363 12.3706C0.606739 12.4633 0.581696 12.6215 0.565707 12.7222C0.511973 13.0604 0.480106 13.3718 0.466039 13.6963C0.458379 13.8735 0.440328 14.0311 0.425955 14.0464C0.391218 14.0834 0.391218 15.9166 0.425955 15.9536C0.440328 15.9689 0.458379 16.1265 0.466039 16.3037C0.480106 16.6282 0.511973 16.9396 0.565707 17.2778C0.581696 17.3786 0.606739 17.5367 0.621363 17.6294C0.635987 17.7221 0.661058 17.8671 0.677075 17.9517C0.693092 18.0363 0.717967 18.1681 0.732313 18.2447C0.746687 18.3212 0.771757 18.4399 0.788025 18.5083C0.80432 18.5768 0.82875 18.6823 0.842316 18.7427C0.893264 18.9696 1.26709 20.1941 1.34765 20.398C1.37787 20.4745 1.4289 20.6063 1.46105 20.691C1.59947 21.0552 1.8683 21.6447 2.12569 22.1485C2.37581 22.638 3.02064 23.7231 3.10067 23.7891C3.11045 23.7972 3.14856 23.8499 3.18538 23.9063C3.22221 23.9627 3.25981 24.0154 3.26895 24.0235C3.27809 24.0316 3.31569 24.0843 3.35254 24.1407C3.38937 24.1971 3.43951 24.263 3.46394 24.2872C3.48837 24.3113 3.53862 24.3773 3.57561 24.4337C3.61258 24.4901 3.67514 24.5692 3.71464 24.6094C3.75414 24.6497 3.81693 24.7284 3.85423 24.7843C3.99423 24.994 5.15964 26.2197 5.35906 26.3669C5.41218 26.4062 5.48697 26.4722 5.52527 26.5138C5.56357 26.5553 5.63878 26.6211 5.69241 26.66C5.74603 26.6989 5.8087 26.7517 5.83169 26.7774C5.85467 26.8031 5.91734 26.8559 5.97096 26.8946C6.02459 26.9333 6.07473 26.9729 6.08239 26.9825C6.09005 26.9921 6.14019 27.0317 6.19381 27.0704C6.24743 27.1091 6.29757 27.1492 6.30523 27.1595C6.33328 27.1971 6.99737 27.6535 7.3359 27.8679C7.67226 28.0809 8.9268 28.757 9.13973 28.84C9.19709 28.8624 9.31297 28.91 9.39723 28.9459C9.66147 29.0584 10.8829 29.4799 11.1034 29.5347C11.1609 29.549 11.2611 29.5747 11.3262 29.5918C11.3913 29.6089 11.5042 29.6353 11.577 29.6504C11.6497 29.6655 11.7751 29.6916 11.8555 29.7085C11.9359 29.7253 12.0738 29.7517 12.1619 29.7671C12.25 29.7825 12.4004 29.8088 12.4962 29.8256C12.8178 29.8821 13.1139 29.9156 13.4224 29.9304C13.5909 29.9385 13.7407 29.9575 13.7553 29.9726C13.7904 30.0091 15.5335 30.0091 15.5687 29.9726C15.5832 29.9575 15.733 29.9385 15.9016 29.9304C16.21 29.9156 16.5062 29.8821 16.8278 29.8256C16.9235 29.8088 17.0739 29.7825 17.162 29.7671C17.4248 29.7212 17.8293 29.6363 17.9908 29.5931C18.052 29.5767 18.1523 29.551 18.2136 29.536C18.431 29.4828 19.594 29.0908 19.7944 29.0032C19.8672 28.9714 19.9925 28.9178 20.073 28.8839C20.4193 28.7384 20.9798 28.4556 21.4588 28.1849C21.9242 27.9219 22.9559 27.2437 23.0187 27.1595C23.0264 27.1492 23.0765 27.1091 23.1302 27.0704C23.1838 27.0317 23.2339 26.9921 23.2416 26.9825C23.2492 26.9729 23.2994 26.9333 23.353 26.8946C23.4066 26.8559 23.4693 26.8031 23.4923 26.7774C23.5153 26.7517 23.5779 26.6989 23.6316 26.66C23.6852 26.6211 23.7604 26.5553 23.7987 26.5138C23.837 26.4722 23.9122 26.4059 23.9658 26.3664C24.0195 26.3268 24.1779 26.174 24.318 26.0268C24.4581 25.8795 24.6099 25.7359 24.6555 25.7076C24.701 25.6793 24.7603 25.617 24.7872 25.5691C24.8141 25.5211 24.9632 25.3482 25.1185 25.1848C25.2737 25.0215 25.4316 24.8416 25.4692 24.7852C25.5068 24.7288 25.5698 24.6497 25.6093 24.6094C25.6488 24.5692 25.7114 24.4901 25.7484 24.4337C25.7853 24.3773 25.8356 24.3113 25.86 24.2872C25.8845 24.263 25.9346 24.1971 25.9714 24.1407C26.0083 24.0843 26.0459 24.0316 26.055 24.0235C26.0642 24.0154 26.1018 23.9627 26.1386 23.9063C26.1754 23.8499 26.2135 23.7972 26.2233 23.7891C26.3047 23.7219 27.0264 22.5028 27.2205 22.1045C27.2833 21.9756 27.3521 21.8372 27.3734 21.7969C27.4379 21.6745 27.8007 20.855 27.8629 20.691C27.8951 20.6063 27.9461 20.4745 27.9763 20.398C28.0569 20.1941 28.4307 18.9696 28.4817 18.7427C28.4952 18.6823 28.5196 18.5768 28.5359 18.5083C28.5522 18.4399 28.5777 18.3179 28.5925 18.2373C28.6074 18.1568 28.6322 18.0249 28.6478 17.9444C28.6633 17.8638 28.688 17.7221 28.7026 17.6294C28.7172 17.5367 28.7423 17.3786 28.7583 17.2778C28.812 16.9396 28.8439 16.6282 28.8579 16.3037C28.8656 16.1265 28.8836 15.9689 28.898 15.9536C28.9327 15.9166 28.9327 14.0834 28.898 14.0464C28.8836 14.0311 28.8656 13.8735 28.8579 13.6963C28.8439 13.3718 28.812 13.0604 28.7583 12.7222C28.7423 12.6215 28.7172 12.4633 28.7026 12.3706C28.688 12.2779 28.6629 12.1329 28.6469 12.0483C28.6309 11.9637 28.606 11.8319 28.5917 11.7553C28.5773 11.6788 28.5528 11.5635 28.5372 11.499C28.5216 11.4345 28.4972 11.3291 28.4829 11.2646C28.4323 11.036 28.0596 9.8128 27.9763 9.60201C27.9461 9.52546 27.8951 9.39362 27.8629 9.30904C27.7245 8.94482 27.4557 8.35527 27.1983 7.85151C26.9482 7.36201 26.3033 6.27694 26.2233 6.21087C26.2135 6.20282 26.1754 6.15008 26.1386 6.09368C26.1018 6.03729 26.0642 5.98455 26.055 5.9765C26.0459 5.96844 26.0083 5.9157 25.9714 5.85931C25.9346 5.80291 25.8845 5.73699 25.86 5.71282C25.8356 5.68865 25.7853 5.62273 25.7484 5.56634C25.7114 5.50994 25.6488 5.43084 25.6093 5.39055C25.5698 5.35027 25.5069 5.27117 25.4695 5.21477C25.432 5.15837 25.2944 5.00017 25.1636 4.86321C25.0329 4.72624 24.8952 4.56804 24.8576 4.51164C24.7729 4.38432 24.7554 4.36592 24.6344 4.27683C24.5807 4.23736 24.4303 4.09255 24.3001 3.955C24.1699 3.81745 24.0195 3.67272 23.9658 3.63334C23.9122 3.59397 23.837 3.52779 23.7987 3.48624C23.7604 3.4447 23.6852 3.3789 23.6316 3.34002C23.5779 3.30112 23.5153 3.24826 23.4923 3.22257C23.4693 3.19688 23.4066 3.14414 23.353 3.10541C23.2994 3.06665 23.2492 3.0271 23.2416 3.01749C23.2339 3.00788 23.1838 2.96833 23.1302 2.9296C23.0765 2.89087 23.0264 2.85079 23.0187 2.84051C22.9932 2.80626 22.3304 2.34793 22.039 2.16298C21.4262 1.77406 20.6337 1.3521 20.073 1.11614C19.9925 1.08227 19.8672 1.02857 19.7944 0.996782C19.6005 0.912055 18.4363 0.518888 18.2206 0.465304C18.1631 0.451036 18.0628 0.425342 17.9977 0.408204C17.8252 0.362852 17.423 0.278476 17.162 0.232919C17.0739 0.217538 16.9235 0.1912 16.8278 0.174384C16.5062 0.11787 16.21 0.0843536 15.9016 0.0695586C15.733 0.0615019 15.5833 0.0425174 15.5687 0.0274001C15.5335 -0.00913337 13.7904 -0.00913337 13.7553 0.0274001ZM10.1369 7.34851C10.5901 7.51442 10.942 7.87474 11.0556 8.28906C11.0802 8.37874 11.113 8.49848 11.1286 8.55517C11.1599 8.66937 11.1461 9.06113 11.1045 9.24312C11.0233 9.5975 10.6924 10.0252 10.365 10.1991C10.0606 10.3607 9.85958 10.4083 9.4808 10.4083C9.17929 10.4083 8.97747 10.3748 8.84847 10.3033C8.79942 10.2761 8.74529 10.2539 8.72814 10.2539C8.67173 10.2539 8.43913 10.0689 8.27537 9.89375C8.11013 9.71709 8.01143 9.54216 7.95374 9.32369C7.93566 9.25522 7.90711 9.1489 7.89029 9.08747C7.85931 8.97438 7.86806 8.74862 7.91377 8.4814C7.94383 8.30561 8.13542 7.89803 8.24564 7.77534C8.40049 7.60295 8.85652 7.32463 8.98555 7.32372C9.02048 7.32346 9.06784 7.31048 9.09082 7.29487C9.1138 7.27925 9.30809 7.26645 9.52258 7.26642C9.878 7.26636 9.93245 7.27362 10.1369 7.34851ZM18.8543 11.537C19.2679 11.6307 19.3294 11.6527 19.6482 11.821C20.0022 12.0079 20.1194 12.0963 20.3885 12.3793C20.8887 12.9054 21.2267 13.625 21.351 14.4287C21.4292 14.9346 21.4372 15.2501 21.441 17.9883L21.4449 20.8448H20.0103H18.5757L18.5577 18.3106C18.5408 15.9328 18.5244 15.42 18.4564 15.1318C18.2932 14.4406 18.0474 14.1328 17.498 13.9315C17.3551 13.8792 16.8464 13.8709 16.6974 13.9185C16.6427 13.936 16.5616 13.9619 16.5171 13.9762C16.2611 14.0585 15.9047 14.3767 15.731 14.6782C15.4958 15.0865 15.5133 14.8353 15.4977 18.0176L15.4837 20.8448H14.0213H12.5589L12.5663 20.0245C12.5704 19.5733 12.5803 17.5825 12.5883 15.6006C12.5995 12.8432 12.5951 11.9713 12.5695 11.8873C12.5404 11.7916 12.5426 11.7701 12.5866 11.7188C12.6359 11.6616 12.6716 11.6601 14.0165 11.6601C15.2608 11.6601 15.4008 11.6649 15.4467 11.7086C15.4925 11.7522 15.4977 11.8111 15.4977 12.2946C15.4977 12.7329 15.5048 12.832 15.5362 12.832C15.5575 12.832 15.5972 12.7957 15.6245 12.7514C15.6518 12.7072 15.6945 12.6511 15.7195 12.6269C15.7445 12.6028 15.7954 12.5368 15.8327 12.4804C15.9177 12.3516 15.9868 12.2788 16.1105 12.1875C16.1641 12.1479 16.2371 12.0852 16.2727 12.0481C16.4189 11.896 17.1926 11.5436 17.3828 11.5425C17.4261 11.5422 17.4803 11.529 17.5033 11.513C17.5579 11.4751 18.668 11.4948 18.8543 11.537ZM10.939 11.7138C10.9817 11.7634 10.9847 12.1141 10.9781 16.3061L10.9711 20.8448H9.50865H8.04622L8.03906 16.2891C8.03514 13.7834 8.03787 11.7169 8.04517 11.6968C8.05553 11.6681 8.36749 11.6601 9.47562 11.6601C10.8142 11.6601 10.8954 11.6631 10.939 11.7138Z" fill="black"/>
</svg>
