<svg width="30" height="30" viewBox="0 0 30 30" fill="none" xmlns="http://www.w3.org/2000/svg">
<path fill-rule="evenodd" clip-rule="evenodd" d="M13.9118 0.0274001C13.8967 0.0425174 13.7407 0.0615019 13.5651 0.0695586C13.2438 0.0843536 12.9353 0.11787 12.6003 0.174384C12.5006 0.1912 12.3439 0.217538 12.2521 0.232919C12.1603 0.2483 12.0167 0.274668 11.9329 0.291513C11.8492 0.308359 11.7186 0.334522 11.6428 0.34961C11.5669 0.364727 11.4527 0.390479 11.3889 0.406885C11.325 0.423262 11.2206 0.448956 11.1567 0.463956C10.9303 0.517218 9.71882 0.909213 9.51005 0.996782C9.43423 1.02857 9.30365 1.08221 9.21988 1.11602C9.05742 1.1815 8.2458 1.56307 8.12451 1.63095C8.08461 1.6533 7.94751 1.72564 7.81984 1.79173C7.42541 1.99587 6.21792 2.75493 6.15139 2.84051C6.14341 2.85079 6.09118 2.89087 6.03532 2.9296C5.97946 2.96833 5.92724 3.00788 5.91926 3.01749C5.91128 3.0271 5.85905 3.06665 5.80319 3.10541C5.74733 3.14414 5.68205 3.19688 5.65811 3.22257C5.63417 3.24826 5.56888 3.30112 5.51302 3.34002C5.45717 3.3789 5.37882 3.4447 5.33893 3.48624C5.29903 3.52779 5.22068 3.59412 5.16483 3.63364C5.10897 3.67319 4.93087 3.83919 4.76904 4.00249C4.60722 4.16582 4.43596 4.32262 4.38849 4.35092C4.34102 4.37922 4.27927 4.44156 4.25127 4.48943C4.22327 4.53734 4.08103 4.69703 3.93519 4.84437C3.78936 4.9917 3.63798 5.15838 3.59884 5.21477C3.55966 5.27117 3.494 5.35027 3.45285 5.39055C3.41171 5.43084 3.34654 5.50994 3.30803 5.56634C3.2695 5.62273 3.21715 5.68865 3.19171 5.71282C3.16626 5.73699 3.11403 5.80291 3.07567 5.85931C3.03728 5.9157 2.99811 5.96844 2.98859 5.9765C2.97907 5.98455 2.9399 6.03729 2.90154 6.09368C2.86318 6.15008 2.82349 6.20282 2.8133 6.21087C2.77938 6.23777 2.32545 6.9348 2.14227 7.24134C1.75707 7.88585 1.33915 8.71932 1.10545 9.30904C1.07191 9.39362 1.01872 9.52546 0.987235 9.60201C0.900505 9.8128 0.512264 11.036 0.459512 11.2646C0.444656 11.3291 0.419209 11.4345 0.402988 11.499C0.386739 11.5635 0.361234 11.6788 0.346261 11.7553C0.331318 11.8319 0.305406 11.9637 0.288721 12.0483C0.272037 12.1329 0.245922 12.2779 0.230688 12.3706C0.215455 12.4633 0.189369 12.6215 0.172713 12.7222C0.116741 13.0604 0.0835457 13.3718 0.0688924 13.6963C0.0609129 13.8735 0.0421102 14.0311 0.0271377 14.0464C-0.00904589 14.0834 -0.00904589 15.9166 0.0271377 15.9536C0.0421102 15.9689 0.0609129 16.1265 0.0688924 16.3037C0.0835457 16.6282 0.116741 16.9396 0.172713 17.2778C0.189369 17.3786 0.215455 17.5367 0.230688 17.6294C0.245922 17.7221 0.272037 17.8671 0.288721 17.9517C0.305406 18.0363 0.331318 18.1681 0.346261 18.2447C0.361234 18.3212 0.387348 18.4399 0.404294 18.5083C0.421269 18.5768 0.446716 18.6823 0.460847 18.7427C0.513918 18.9696 0.90332 20.1941 0.987235 20.398C1.01872 20.4745 1.07188 20.6064 1.10536 20.691C1.24954 21.0552 1.52958 21.6447 1.7977 22.1485C2.05823 22.638 2.72994 23.7231 2.8133 23.7891C2.82349 23.7972 2.86318 23.8499 2.90154 23.9063C2.9399 23.9627 2.97907 24.0154 2.98859 24.0235C2.99811 24.0316 3.03728 24.0843 3.07567 24.1407C3.11403 24.1971 3.16626 24.263 3.19171 24.2872C3.21715 24.3113 3.2695 24.3773 3.30803 24.4337C3.34654 24.4901 3.41171 24.5692 3.45285 24.6094C3.494 24.6497 3.5594 24.7284 3.59826 24.7843C3.74409 24.994 4.95806 26.2197 5.16578 26.3669C5.22112 26.4062 5.29903 26.4722 5.33893 26.5138C5.37882 26.5553 5.45717 26.6211 5.51302 26.66C5.56888 26.6989 5.63417 26.7517 5.65811 26.7774C5.68205 26.8031 5.74733 26.8559 5.80319 26.8946C5.85905 26.9334 5.91128 26.9729 5.91926 26.9825C5.92724 26.9921 5.97946 27.0317 6.03532 27.0704C6.09118 27.1091 6.14341 27.1492 6.15139 27.1595C6.18061 27.1971 6.87236 27.6535 7.225 27.8679C7.57537 28.0809 8.88219 28.757 9.10399 28.84C9.16374 28.8624 9.28444 28.91 9.37222 28.9459C9.64747 29.0584 10.9198 29.4799 11.1495 29.5347C11.2093 29.549 11.3138 29.5747 11.3816 29.5918C11.4494 29.6089 11.5669 29.6353 11.6428 29.6504C11.7186 29.6655 11.8492 29.6916 11.9329 29.7085C12.0167 29.7253 12.1603 29.7517 12.2521 29.7671C12.3439 29.7825 12.5005 29.8088 12.6003 29.8256C12.9353 29.8821 13.2438 29.9156 13.5651 29.9304C13.7407 29.9385 13.8967 29.9575 13.9118 29.9726C13.9485 30.0091 15.7642 30.0091 15.8008 29.9726C15.816 29.9575 15.972 29.9385 16.1476 29.9304C16.4689 29.9156 16.7774 29.8821 17.1124 29.8256C17.2121 29.8088 17.3688 29.7825 17.4606 29.7671C17.7342 29.7212 18.1556 29.6363 18.3238 29.5931C18.3876 29.5767 18.4921 29.551 18.5559 29.536C18.7824 29.4828 19.9939 29.0908 20.2026 29.0032C20.2784 28.9714 20.409 28.9178 20.4928 28.8839C20.8535 28.7384 21.4374 28.4556 21.9364 28.1849C22.4212 27.9219 23.4959 27.2437 23.5613 27.1595C23.5693 27.1492 23.6215 27.1091 23.6774 27.0704C23.7332 27.0317 23.7854 26.9921 23.7934 26.9825C23.8014 26.9729 23.8536 26.9334 23.9095 26.8946C23.9653 26.8559 24.0306 26.8031 24.0546 26.7774C24.0785 26.7517 24.1438 26.6989 24.1996 26.66C24.2555 26.6211 24.3338 26.5553 24.3737 26.5138C24.4136 26.4722 24.492 26.4059 24.5478 26.3664C24.6037 26.3268 24.7688 26.174 24.9147 26.0268C25.0606 25.8795 25.2188 25.7359 25.2662 25.7076C25.3136 25.6793 25.3754 25.617 25.4034 25.5691C25.4315 25.5211 25.5868 25.3482 25.7485 25.1848C25.9103 25.0215 26.0747 24.8416 26.1138 24.7852C26.153 24.7288 26.2187 24.6497 26.2598 24.6094C26.301 24.5692 26.3661 24.4901 26.4046 24.4337C26.4432 24.3773 26.4955 24.3113 26.521 24.2872C26.5464 24.263 26.5986 24.1971 26.637 24.1407C26.6754 24.0843 26.7146 24.0316 26.7241 24.0235C26.7336 24.0154 26.7728 23.9627 26.8111 23.9063C26.8495 23.8499 26.8892 23.7972 26.8994 23.7891C26.9841 23.7219 27.7359 22.5028 27.9381 22.1045C28.0036 21.9756 28.0752 21.8372 28.0973 21.7969C28.1646 21.6745 28.5425 20.855 28.6073 20.691C28.6408 20.6064 28.694 20.4745 28.7254 20.398C28.8094 20.1941 29.1988 18.9696 29.2518 18.7427C29.266 18.6823 29.2914 18.5768 29.3084 18.5083C29.3253 18.4399 29.3519 18.3179 29.3673 18.2373C29.3828 18.1568 29.4087 18.0249 29.4249 17.9444C29.441 17.8638 29.4668 17.7221 29.482 17.6294C29.4972 17.5367 29.5233 17.3786 29.54 17.2778C29.5959 16.9396 29.6291 16.6282 29.6438 16.3037C29.6518 16.1265 29.6706 15.9689 29.6855 15.9536C29.7217 15.9166 29.7217 14.0834 29.6855 14.0464C29.6706 14.0311 29.6518 13.8735 29.6438 13.6963C29.6291 13.3718 29.5959 13.0604 29.54 12.7222C29.5233 12.6215 29.4972 12.4633 29.482 12.3706C29.4668 12.2779 29.4406 12.1329 29.424 12.0483C29.4073 11.9637 29.3814 11.8319 29.3664 11.7553C29.3514 11.6788 29.3259 11.5635 29.3097 11.499C29.2935 11.4345 29.268 11.3291 29.2532 11.2646C29.2004 11.036 28.8122 9.8128 28.7254 9.60201C28.694 9.52546 28.6408 9.39362 28.6073 9.30904C28.4631 8.94482 28.1831 8.35527 27.915 7.85151C27.6544 7.36201 26.9827 6.27694 26.8994 6.21087C26.8892 6.20282 26.8495 6.15008 26.8111 6.09368C26.7728 6.03729 26.7336 5.98455 26.7241 5.9765C26.7146 5.96844 26.6754 5.9157 26.637 5.85931C26.5986 5.80291 26.5464 5.73699 26.521 5.71282C26.4955 5.68865 26.4432 5.62273 26.4046 5.56634C26.3661 5.50994 26.301 5.43084 26.2598 5.39055C26.2187 5.35027 26.1531 5.27117 26.1141 5.21477C26.0751 5.15838 25.9318 5.00017 25.7956 4.86321C25.6593 4.72624 25.5159 4.56804 25.4768 4.51164C25.3886 4.38432 25.3703 4.36592 25.2442 4.27683C25.1884 4.23736 25.0317 4.09255 24.896 3.955C24.7604 3.81745 24.6037 3.67272 24.5478 3.63334C24.492 3.59397 24.4136 3.52779 24.3737 3.48624C24.3338 3.4447 24.2555 3.3789 24.1996 3.34002C24.1438 3.30112 24.0785 3.24826 24.0546 3.22257C24.0306 3.19688 23.9653 3.14414 23.9095 3.10541C23.8536 3.06665 23.8014 3.0271 23.7934 3.01749C23.7854 3.00788 23.7332 2.96833 23.6774 2.9296C23.6215 2.89087 23.5693 2.85079 23.5613 2.84051C23.5346 2.80626 22.8443 2.34793 22.5407 2.16298C21.9024 1.77406 21.0769 1.3521 20.4928 1.11614C20.409 1.08227 20.2784 1.02857 20.2026 0.996782C20.0007 0.912055 18.7879 0.518888 18.5632 0.465304C18.5034 0.451036 18.3989 0.425342 18.3311 0.408204C18.1513 0.362852 17.7324 0.278476 17.4606 0.232919C17.3688 0.217538 17.2121 0.1912 17.1124 0.174384C16.7774 0.11787 16.4689 0.0843536 16.1476 0.0695586C15.972 0.0615019 15.816 0.0425174 15.8008 0.0274001C15.7642 -0.00913337 13.9485 -0.00913337 13.9118 0.0274001ZM10.1427 7.34851C10.6148 7.51442 10.9814 7.87474 11.0997 8.28906C11.1253 8.37874 11.1595 8.49848 11.1757 8.55517C11.2083 8.66937 11.194 9.06113 11.1506 9.24312C11.0661 9.5975 10.7214 10.0252 10.3803 10.1991C10.0633 10.3607 9.85383 10.4083 9.45927 10.4083C9.14519 10.4083 8.93497 10.3748 8.80059 10.3033C8.74949 10.2761 8.69312 10.2539 8.67524 10.2539C8.61648 10.2539 8.3742 10.0689 8.20361 9.89375C8.03148 9.71709 7.92868 9.54216 7.86858 9.32369C7.84975 9.25522 7.82001 9.1489 7.80248 9.08747C7.77022 8.97438 7.77933 8.74862 7.82694 8.4814C7.85825 8.30561 8.05783 7.89803 8.17265 7.77534C8.33395 7.60295 8.80898 7.32463 8.94338 7.32372C8.97977 7.32346 9.0291 7.31048 9.05304 7.29487C9.07698 7.27925 9.27937 7.26645 9.50279 7.26642C9.87301 7.26636 9.92974 7.27362 10.1427 7.34851ZM19.2233 11.537C19.6542 11.6307 19.7183 11.6527 20.0503 11.821C20.4191 12.0079 20.5412 12.0963 20.8214 12.3793C21.3425 12.9054 21.6945 13.625 21.824 14.4287C21.9055 14.9346 21.9138 15.2501 21.9178 17.9883L21.9219 20.8448H20.4275H18.9332L18.9144 18.3106C18.8968 15.9328 18.8797 15.42 18.8088 15.1318C18.6388 14.4406 18.3828 14.1328 17.8105 13.9315C17.6617 13.8792 17.1318 13.8709 16.9766 13.9185C16.9196 13.936 16.8351 13.9619 16.7887 13.9762C16.5221 14.0585 16.1508 14.3767 15.9699 14.6782C15.7249 15.0865 15.7432 14.8353 15.7268 18.0176L15.7123 20.8448H14.189H12.6656L12.6733 20.0245C12.6776 19.5733 12.6879 17.5825 12.6963 15.6006C12.7079 12.8432 12.7033 11.9713 12.6767 11.8873C12.6463 11.7916 12.6486 11.7701 12.6945 11.7188C12.7458 11.6616 12.783 11.6601 14.1839 11.6601C15.4801 11.6601 15.6259 11.6649 15.6738 11.7086C15.7215 11.7522 15.7268 11.8111 15.7268 12.2946C15.7268 12.7329 15.7342 12.832 15.767 12.832C15.7891 12.832 15.8305 12.7957 15.8589 12.7514C15.8874 12.7072 15.9319 12.6511 15.9579 12.6269C15.9839 12.6028 16.037 12.5368 16.0758 12.4805C16.1644 12.3516 16.2363 12.2788 16.3652 12.1875C16.4211 12.1479 16.4971 12.0852 16.5342 12.0481C16.6864 11.896 17.4924 11.5436 17.6906 11.5425C17.7356 11.5422 17.7921 11.529 17.816 11.513C17.8729 11.4751 19.0293 11.4948 19.2233 11.537ZM10.9782 11.7138C11.0227 11.7634 11.0258 12.1141 11.019 16.3061L11.0117 20.8448H9.48828H7.96492L7.95746 16.2891C7.95337 13.7834 7.95621 11.7169 7.96382 11.6968C7.97461 11.6681 8.29957 11.6601 9.45387 11.6601C10.8482 11.6601 10.9328 11.6631 10.9782 11.7138Z" fill="#2ECC71"/>
</svg>
