<svg width="30" height="31" viewBox="0 0 30 31" fill="none" xmlns="http://www.w3.org/2000/svg">
<path fill-rule="evenodd" clip-rule="evenodd" d="M15 30.7764C23.2843 30.7764 30 24.0606 30 15.7764C30 7.4921 23.2843 0.776367 15 0.776367C6.71573 0.776367 0 7.4921 0 15.7764C0 24.0606 6.71573 30.7764 15 30.7764Z" fill="#2ECC71"/>
<path d="M7.37161 10.9663C7.39646 10.7151 7.30284 10.4667 7.11951 10.2976L5.2521 7.99528V7.65137H11.0504L15.5322 17.7109L19.4725 7.65137H25V7.99528L23.4034 9.56201C23.2657 9.66939 23.1974 9.84588 23.226 10.0206V21.5322C23.1974 21.7069 23.2657 21.8833 23.4034 21.9907L24.9626 23.5575V23.9014H17.1195V23.5575L18.7348 21.9525C18.8936 21.7901 18.8936 21.7423 18.8936 21.494V12.1891L14.4024 23.8632H13.7955L8.56676 12.1891V20.0132C8.52316 20.3422 8.62991 20.6733 8.85621 20.9112L10.957 23.5192V23.8632H5V23.5192L7.10084 20.9112C7.32549 20.6729 7.42601 20.3396 7.37161 20.0132V10.9663Z" fill="#252525"/>
</svg>
