<svg width="30" height="30" viewBox="0 0 30 30" fill="none" xmlns="http://www.w3.org/2000/svg">
<path fill-rule="evenodd" clip-rule="evenodd" d="M15 30C23.2843 30 30 23.2843 30 15C30 6.71573 23.2843 0 15 0C6.71573 0 0 6.71573 0 15C0 23.2843 6.71573 30 15 30Z" fill="#2ECC71"/>
<path d="M7.37161 10.19C7.39646 9.9387 7.30284 9.69035 7.11951 9.52124L5.2521 7.21892V6.875H11.0504L15.5322 16.9345L19.4725 6.875H25V7.21892L23.4034 8.78564C23.2657 8.89302 23.1974 9.06951 23.226 9.24419V20.7558C23.1974 20.9305 23.2657 21.107 23.4034 21.2144L24.9626 22.7811V23.125H17.1195V22.7811L18.7348 21.1761C18.8936 21.0137 18.8936 20.966 18.8936 20.7176V11.4128L14.4024 23.0868H13.7955L8.56676 11.4128V19.2368C8.52316 19.5658 8.62991 19.897 8.85621 20.1348L10.957 22.7429V23.0868H5V22.7429L7.10084 20.1348C7.32549 19.8966 7.42601 19.5632 7.37161 19.2368V10.19Z" fill="white"/>
</svg>
