<svg width="31" height="30" viewBox="0 0 31 30" fill="none" xmlns="http://www.w3.org/2000/svg">
<path fill-rule="evenodd" clip-rule="evenodd" d="M15.9199 30C24.2042 30 30.9199 23.2843 30.9199 15C30.9199 6.71573 24.2042 0 15.9199 0C7.63565 0 0.919922 6.71573 0.919922 15C0.919922 23.2843 7.63565 30 15.9199 30Z" fill="black"/>
<path d="M8.29154 10.19C8.31639 9.9387 8.22276 9.69035 8.03944 9.52124L6.17202 7.21892V6.875H11.9703L16.4521 16.9345L20.3924 6.875H25.9199V7.21892L24.3233 8.78564C24.1856 8.89302 24.1174 9.06951 24.1459 9.24419V20.7558C24.1174 20.9305 24.1856 21.107 24.3233 21.2144L25.8826 22.7811V23.125H18.0394V22.7811L19.6547 21.1761C19.8135 21.0137 19.8135 20.966 19.8135 20.7176V11.4128L15.3223 23.0868H14.7154L9.48668 11.4128V19.2368C9.44309 19.5658 9.54983 19.897 9.77613 20.1348L11.877 22.7429V23.0868H5.91992V22.7429L8.02076 20.1348C8.24541 19.8966 8.34593 19.5632 8.29154 19.2368V10.19Z" fill="#2ECC71"/>
</svg>
