<svg width="29" height="30" viewBox="0 0 29 30" fill="none" xmlns="http://www.w3.org/2000/svg">
<path fill-rule="evenodd" clip-rule="evenodd" d="M13.7155 0.0274001C13.7009 0.0425174 13.5511 0.0615019 13.3826 0.0695586C13.0741 0.0843536 12.778 0.11787 12.4564 0.174384C12.3607 0.1912 12.2102 0.217538 12.1221 0.232919C12.034 0.2483 11.8961 0.274668 11.8157 0.291513C11.7353 0.308359 11.6099 0.334522 11.5372 0.349609C11.4644 0.364727 11.3547 0.390479 11.2934 0.406885C11.2321 0.423262 11.1319 0.448956 11.0706 0.463956C10.8532 0.517218 9.69017 0.909213 9.48975 0.996782C9.41696 1.02857 9.29161 1.08227 9.21119 1.11614C8.65048 1.3521 7.85801 1.77406 7.24521 2.16298C6.95376 2.34793 6.29101 2.80626 6.26544 2.84051C6.25778 2.85079 6.20764 2.89087 6.15402 2.9296C6.10039 2.96833 6.05025 3.00788 6.04259 3.01749C6.03493 3.0271 5.98479 3.06665 5.93117 3.10541C5.87755 3.14414 5.81487 3.19688 5.79189 3.22257C5.76891 3.24826 5.70623 3.30112 5.65261 3.34002C5.59899 3.3789 5.52378 3.4447 5.48548 3.48624C5.44717 3.52779 5.37196 3.59397 5.31834 3.63334C5.26472 3.67272 5.1143 3.81745 4.98407 3.955C4.85385 4.09255 4.70342 4.23736 4.6498 4.27683C4.52874 4.36592 4.51125 4.38432 4.42654 4.51164C4.38901 4.56804 4.25132 4.72624 4.12054 4.86321C3.98976 5.00017 3.85215 5.15837 3.81471 5.21477C3.77727 5.27117 3.71435 5.35027 3.67485 5.39055C3.63535 5.43084 3.57278 5.50994 3.53582 5.56634C3.49883 5.62273 3.44857 5.68865 3.42414 5.71282C3.39971 5.73699 3.34957 5.80291 3.31275 5.85931C3.2759 5.9157 3.23829 5.96844 3.22915 5.9765C3.22002 5.98455 3.18241 6.03729 3.14559 6.09368C3.10876 6.15008 3.07063 6.20282 3.06085 6.21087C2.99001 6.26917 2.34298 7.35613 2.04935 7.9101C1.89115 8.20852 1.55588 8.95534 1.42134 9.30904C1.38914 9.39362 1.33808 9.52546 1.30785 9.60201C1.22459 9.8128 0.851881 11.036 0.801239 11.2646C0.786977 11.3291 0.762548 11.4345 0.746976 11.499C0.731377 11.5635 0.706892 11.6788 0.692518 11.7553C0.678172 11.8319 0.653297 11.9637 0.63728 12.0483C0.621263 12.1329 0.596193 12.2779 0.581568 12.3706C0.566944 12.4633 0.541902 12.6215 0.525912 12.7222C0.472178 13.0604 0.440311 13.3718 0.426244 13.6963C0.418584 13.8735 0.400533 14.0311 0.38616 14.0464C0.351423 14.0834 0.351423 15.9166 0.38616 15.9536C0.400533 15.9689 0.418584 16.1265 0.426244 16.3037C0.440311 16.6282 0.472178 16.9396 0.525912 17.2778C0.541902 17.3786 0.566944 17.5367 0.581568 17.6294C0.596193 17.7221 0.621263 17.8671 0.63728 17.9517C0.653297 18.0363 0.678172 18.1681 0.692518 18.2447C0.706892 18.3212 0.731962 18.4399 0.74823 18.5083C0.764525 18.5768 0.788955 18.6823 0.802521 18.7427C0.853469 18.9696 1.22729 20.1941 1.30785 20.398C1.33808 20.4745 1.38914 20.6063 1.42134 20.691C1.64569 21.2807 2.0469 22.1142 2.41668 22.7587C2.59254 23.0652 3.02831 23.7622 3.06088 23.7891C3.07065 23.7972 3.10876 23.8499 3.14559 23.9063C3.18241 23.9627 3.22002 24.0154 3.22915 24.0235C3.23829 24.0316 3.2759 24.0843 3.31275 24.1407C3.34957 24.1971 3.39971 24.263 3.42414 24.2872C3.44857 24.3113 3.49883 24.3773 3.53582 24.4337C3.57278 24.4901 3.63535 24.5692 3.67485 24.6094C3.71435 24.6497 3.77738 24.7288 3.81499 24.7852C3.85257 24.8416 3.99789 25.0083 4.13789 25.1556C4.2779 25.303 4.41445 25.4627 4.44133 25.5106C4.46821 25.5584 4.52749 25.6208 4.57306 25.6491C4.61863 25.6774 4.78304 25.8342 4.93839 25.9975C5.09374 26.1608 5.26472 26.3268 5.31834 26.3664C5.37196 26.4059 5.44717 26.4722 5.48548 26.5138C5.52378 26.5553 5.59899 26.6211 5.65261 26.66C5.70623 26.6989 5.76891 26.7517 5.79189 26.7774C5.81487 26.8031 5.87755 26.8559 5.93117 26.8946C5.98479 26.9333 6.03493 26.9729 6.04259 26.9825C6.05025 26.9921 6.10039 27.0317 6.15402 27.0704C6.20764 27.1091 6.25778 27.1492 6.26544 27.1595C6.29349 27.1971 6.95757 27.6535 7.2961 27.8679C7.63246 28.0809 8.88701 28.757 9.09994 28.84C9.15729 28.8624 9.27317 28.91 9.35744 28.9459C9.62168 29.0584 10.8431 29.4799 11.0636 29.5347C11.1211 29.549 11.2214 29.5747 11.2865 29.5918C11.3516 29.6089 11.4644 29.6353 11.5372 29.6504C11.6099 29.6655 11.7353 29.6916 11.8157 29.7085C11.8961 29.7253 12.034 29.7517 12.1221 29.7671C12.2102 29.7825 12.3606 29.8088 12.4564 29.8256C12.778 29.8821 13.0741 29.9156 13.3826 29.9304C13.5511 29.9385 13.7009 29.9575 13.7155 29.9726C13.7506 30.0091 15.4937 30.0091 15.5289 29.9726C15.5434 29.9575 15.6932 29.9385 15.8618 29.9304C16.1702 29.9156 16.4664 29.8821 16.788 29.8256C16.8837 29.8088 17.0341 29.7825 17.1223 29.7671C17.385 29.7212 17.7895 29.6363 17.951 29.5931C18.0122 29.5767 18.1125 29.551 18.1738 29.536C18.3912 29.4828 19.5542 29.0908 19.7546 29.0032C19.8274 28.9714 19.9527 28.9177 20.0332 28.8839C20.5939 28.6479 21.3864 28.2259 21.9992 27.837C22.2906 27.6521 22.9534 27.1937 22.9789 27.1595C22.9866 27.1492 23.0367 27.1091 23.0904 27.0704C23.144 27.0317 23.1941 26.9921 23.2018 26.9825C23.2094 26.9729 23.2596 26.9333 23.3132 26.8946C23.3668 26.8559 23.4295 26.8031 23.4525 26.7774C23.4755 26.7517 23.5381 26.6989 23.5918 26.66C23.6454 26.6211 23.7206 26.5553 23.7589 26.5138C23.7972 26.4722 23.8724 26.406 23.926 26.3667C23.9797 26.3273 24.1301 26.1826 24.2603 26.045C24.3905 25.9075 24.541 25.7626 24.5946 25.7232C24.7156 25.6341 24.7331 25.6157 24.8178 25.4884C24.8554 25.432 24.9931 25.2738 25.1238 25.1368C25.2546 24.9998 25.3922 24.8416 25.4297 24.7852C25.4671 24.7288 25.53 24.6497 25.5695 24.6094C25.609 24.5692 25.6716 24.4901 25.7086 24.4337C25.7456 24.3773 25.7958 24.3113 25.8202 24.2872C25.8447 24.263 25.8948 24.1971 25.9316 24.1407C25.9685 24.0843 26.0061 24.0316 26.0152 24.0235C26.0244 24.0154 26.062 23.9627 26.0988 23.9063C26.1356 23.8499 26.1737 23.7972 26.1835 23.7891C26.2649 23.7219 26.9866 22.5028 27.1807 22.1045C27.2435 21.9756 27.3123 21.8372 27.3336 21.7969C27.3981 21.6745 27.7609 20.855 27.8232 20.691C27.8553 20.6063 27.9063 20.4745 27.9365 20.398C28.0171 20.1941 28.3909 18.9696 28.4419 18.7427C28.4554 18.6823 28.4799 18.5768 28.4961 18.5083C28.5124 18.4399 28.5379 18.3179 28.5528 18.2373C28.5676 18.1568 28.5924 18.0249 28.608 17.9444C28.6235 17.8638 28.6482 17.7221 28.6628 17.6294C28.6774 17.5367 28.7025 17.3786 28.7185 17.2778C28.7722 16.9396 28.8041 16.6282 28.8181 16.3037C28.8258 16.1265 28.8438 15.9689 28.8582 15.9536C28.893 15.9166 28.893 14.0834 28.8582 14.0464C28.8438 14.0311 28.8258 13.8735 28.8181 13.6963C28.8041 13.3718 28.7722 13.0604 28.7185 12.7222C28.7025 12.6215 28.6774 12.4633 28.6628 12.3706C28.6482 12.2779 28.6231 12.1329 28.6071 12.0483C28.5911 11.9637 28.5662 11.8319 28.5519 11.7553C28.5375 11.6788 28.513 11.5635 28.4974 11.499C28.4818 11.4345 28.4574 11.3291 28.4431 11.2646C28.3925 11.036 28.0198 9.8128 27.9365 9.60201C27.9063 9.52546 27.8552 9.39362 27.823 9.30904C27.5987 8.71932 27.1975 7.88585 26.8277 7.24134C26.6518 6.9348 26.2161 6.23777 26.1835 6.21087C26.1737 6.20282 26.1356 6.15008 26.0988 6.09368C26.062 6.03729 26.0244 5.98455 26.0152 5.9765C26.0061 5.96844 25.9685 5.9157 25.9316 5.85931C25.8948 5.80291 25.8447 5.73699 25.8202 5.71282C25.7958 5.68865 25.7456 5.62273 25.7086 5.56634C25.6716 5.50994 25.609 5.43084 25.5695 5.39055C25.53 5.35027 25.4671 5.27117 25.4297 5.21477C25.3922 5.15837 25.2546 5.00017 25.1238 4.86321C24.9931 4.72624 24.8554 4.56804 24.8178 4.51164C24.7331 4.38432 24.7156 4.36592 24.5946 4.27683C24.541 4.23736 24.3905 4.09255 24.2603 3.955C24.1301 3.81745 23.9797 3.67272 23.926 3.63334C23.8724 3.59397 23.7972 3.52779 23.7589 3.48624C23.7206 3.4447 23.6454 3.3789 23.5918 3.34002C23.5381 3.30112 23.4755 3.24826 23.4525 3.22257C23.4295 3.19688 23.3668 3.14414 23.3132 3.10541C23.2596 3.06665 23.2094 3.0271 23.2018 3.01749C23.1941 3.00788 23.144 2.96833 23.0904 2.9296C23.0367 2.89087 22.9866 2.85079 22.9789 2.84051C22.9534 2.80626 22.2906 2.34793 21.9992 2.16298C21.3864 1.77406 20.5939 1.3521 20.0332 1.11614C19.9527 1.08227 19.8274 1.02857 19.7546 0.996782C19.5608 0.912055 18.3965 0.518888 18.1808 0.465304C18.1233 0.451036 18.023 0.425342 17.9579 0.408204C17.7854 0.362852 17.3832 0.278476 17.1223 0.232919C17.0341 0.217538 16.8837 0.1912 16.788 0.174384C16.4664 0.11787 16.1702 0.0843536 15.8618 0.0695586C15.6932 0.0615019 15.5435 0.0425174 15.5289 0.0274001C15.4937 -0.00913337 13.7506 -0.00913337 13.7155 0.0274001ZM18.132 8.2005C18.2776 8.21441 18.4468 8.23841 18.5081 8.25376C18.7667 8.31859 19.7801 8.92044 20.0102 9.14585C20.0401 9.17518 20.0904 9.1988 20.122 9.19833C20.1536 9.19786 20.4301 9.10689 20.7365 8.99615C21.4514 8.73786 21.4966 8.7197 21.7198 8.6019C21.8225 8.5477 21.9491 8.49364 22.0012 8.48175C22.0863 8.46235 22.0938 8.46569 22.0747 8.51474C22.063 8.54474 22.0471 8.59566 22.0393 8.62788C22.0227 8.69691 21.7029 9.2694 21.6411 9.34059C21.6177 9.36755 21.5677 9.43575 21.53 9.49215C21.4923 9.54854 21.3957 9.66395 21.3154 9.74858C21.1814 9.88977 21.0569 10.0903 21.0569 10.1648C21.0569 10.1819 21.1189 10.1953 21.1981 10.1953C21.2969 10.1953 21.4889 10.1424 21.8369 10.0195C22.333 9.84418 22.4497 9.81652 22.4497 9.87418C22.4497 9.94871 22.3251 10.1492 22.1912 10.2904C22.1108 10.375 22.014 10.4904 21.976 10.5468C21.9379 10.6032 21.7285 10.8369 21.5106 11.0662C21.2927 11.2954 21.0859 11.5393 21.051 11.6082C21.0028 11.7034 20.9827 11.8069 20.967 12.041C20.9252 12.6639 20.8683 13.1853 20.8087 13.4912C20.793 13.5718 20.768 13.7036 20.7531 13.7842C20.7383 13.8647 20.7128 13.9867 20.6965 14.0552C20.6802 14.1236 20.6544 14.2324 20.639 14.2969C20.6237 14.3613 20.6001 14.4635 20.5865 14.5239C20.5375 14.7422 20.3173 15.476 20.2481 15.6519C20.218 15.7284 20.167 15.8602 20.1349 15.9448C19.9942 16.3146 19.8729 16.5621 19.6 17.0361C19.3758 17.4255 19.2924 17.5647 19.275 17.5781C19.2645 17.5862 19.2015 17.6785 19.1348 17.7832C19.0682 17.888 19.0059 17.9802 18.9963 17.9883C18.9868 17.9964 18.9488 18.0491 18.912 18.1055C18.8751 18.1619 18.825 18.2278 18.8006 18.252C18.7761 18.2761 18.7257 18.3421 18.6885 18.3985C18.6513 18.4549 18.5513 18.5735 18.4663 18.6621C18.3813 18.7508 18.2808 18.8694 18.2431 18.9258C18.1545 19.058 17.8675 19.3598 17.742 19.4527C17.6884 19.4923 17.5881 19.5848 17.5192 19.6582C17.4503 19.7316 17.35 19.8236 17.2964 19.8627C17.2427 19.9018 17.1926 19.9416 17.1849 19.9512C17.1773 19.9608 17.1271 20.0004 17.0735 20.0391C17.0199 20.0778 16.9697 20.1179 16.9621 20.1281C16.8673 20.2548 15.759 20.9105 15.4094 21.0468C15.3518 21.0693 15.2357 21.1169 15.1515 21.1526C14.9068 21.2564 14.3297 21.4537 14.1138 21.5073C14.0564 21.5216 13.9561 21.5473 13.891 21.5644C13.3261 21.7129 12.3538 21.8285 11.6695 21.8285C11.1994 21.8285 10.3689 21.7542 10.0399 21.6826C9.9633 21.6659 9.83795 21.6395 9.76135 21.6239C9.68474 21.6083 9.57193 21.5821 9.51064 21.5657C9.44936 21.5493 9.34908 21.5238 9.2878 21.5089C9.11476 21.467 8.35446 21.1947 8.18565 21.1141C8.10239 21.0744 7.94027 20.9993 7.82537 20.9473C7.2319 20.6784 6.7947 20.4315 6.7947 20.3652C6.7947 20.3221 6.972 20.2984 7.4911 20.272C8.2644 20.2327 8.87144 20.1478 9.24601 20.0264C9.33028 19.9991 9.44309 19.9637 9.49672 19.9478C9.55034 19.9318 9.65374 19.8931 9.72653 19.8617C9.79931 19.8304 9.92466 19.777 10.0051 19.7432C10.299 19.6195 10.5206 19.5027 10.8477 19.2991C11.2139 19.0711 11.2852 19.017 11.2723 18.9763C11.2676 18.9615 11.1451 18.906 11 18.8532C10.855 18.8003 10.6674 18.7277 10.5831 18.6918C10.4988 18.656 10.3814 18.6078 10.3221 18.5848C10.1568 18.5204 10.0639 18.4652 9.75377 18.2465C9.12448 17.8028 8.71737 17.3029 8.53714 16.7528C8.50143 16.6437 8.50112 16.6205 8.53508 16.5848C8.62162 16.4938 8.78349 16.4657 9.22512 16.4653C9.49268 16.465 9.66385 16.4537 9.66385 16.4361C9.66385 16.4038 9.49114 16.3067 9.38529 16.2795C9.31769 16.2622 8.80046 15.9509 8.77246 15.9107C8.7648 15.8997 8.71466 15.8591 8.66104 15.8203C8.60742 15.7816 8.54474 15.7288 8.52176 15.7031C8.49878 15.6774 8.4361 15.6244 8.38248 15.5852C8.32886 15.546 8.25964 15.4873 8.22866 15.4547C8.19769 15.4222 8.14189 15.3494 8.10465 15.293C8.06741 15.2366 8.0166 15.1707 7.99172 15.1465C7.92272 15.0794 7.67625 14.6762 7.63355 14.5605C7.41215 13.9609 7.30505 13.5614 7.27739 13.2317C7.26064 13.0319 7.28095 12.998 7.39477 13.0354C7.60433 13.1043 8.21326 13.2998 8.31683 13.3314C8.38031 13.3508 8.44613 13.3577 8.46307 13.3466C8.5092 13.3167 8.50031 13.2313 8.44441 13.1671C8.41716 13.1359 8.36429 13.0642 8.32691 13.0078C8.28953 12.9514 8.21423 12.8591 8.15964 12.8027C8.10504 12.7463 8.02983 12.654 7.99253 12.5976C7.95523 12.5412 7.90793 12.477 7.88746 12.4548C7.78013 12.3387 7.50327 11.6714 7.43015 11.3525C7.31396 10.8458 7.3156 10.1634 7.43421 9.66793C7.4516 9.59542 7.47608 9.48995 7.48867 9.43355C7.50126 9.37716 7.5331 9.27169 7.55945 9.19918C7.68715 8.84764 7.7013 8.81831 7.74316 8.81831C7.75743 8.81831 7.92278 8.97989 8.11061 9.17738C8.29844 9.37487 8.49599 9.56905 8.54962 9.6089C8.60324 9.64871 8.72859 9.76757 8.82818 9.87301C8.92776 9.97845 9.05311 10.0968 9.10673 10.1359C9.16036 10.1751 9.22303 10.2282 9.24601 10.2539C9.26899 10.2796 9.33167 10.3323 9.38529 10.371C9.43892 10.4098 9.48906 10.4497 9.49672 10.4597C9.50438 10.4698 9.59212 10.5354 9.69171 10.6054C9.79129 10.6755 9.87904 10.7419 9.8867 10.7529C9.92327 10.8056 10.6408 11.2359 10.9743 11.4052C11.6402 11.7432 11.716 11.7738 12.5887 12.0575C12.673 12.0849 12.7983 12.1179 12.8673 12.1309C12.9362 12.1439 13.049 12.1695 13.118 12.1879C13.379 12.2574 13.9211 12.337 14.1765 12.3434L14.3854 12.3486L14.4017 11.6894C14.4107 11.3269 14.4321 10.9775 14.4492 10.9131C14.4663 10.8486 14.4923 10.7431 14.5069 10.6787C14.5726 10.3884 14.7642 9.96705 14.9914 9.61291C15.1359 9.3877 15.4556 9.03168 15.625 8.90735C15.6786 8.868 15.7288 8.82769 15.7364 8.81779C15.8224 8.70666 16.3616 8.41683 16.6557 8.32363C16.7706 8.28722 16.9031 8.2452 16.9501 8.23026C16.9972 8.21529 17.1351 8.20287 17.2565 8.20263C17.378 8.20237 17.4962 8.18881 17.5192 8.17246C17.5425 8.15588 17.6288 8.1499 17.7142 8.15895C17.7985 8.16786 17.9865 8.18655 18.132 8.2005Z" fill="black"/>
</svg>
