<svg width="30" height="30" viewBox="0 0 30 30" fill="none" xmlns="http://www.w3.org/2000/svg">
<path fill-rule="evenodd" clip-rule="evenodd" d="M13.9118 0.0274001C13.8967 0.0425174 13.7407 0.0615019 13.5651 0.0695586C13.2438 0.0843536 12.9353 0.11787 12.6003 0.174384C12.5006 0.1912 12.3439 0.217538 12.2521 0.232919C12.1603 0.2483 12.0167 0.274668 11.9329 0.291513C11.8492 0.308359 11.7186 0.334522 11.6428 0.349609C11.5669 0.364727 11.4527 0.390479 11.3889 0.406885C11.325 0.423262 11.2206 0.448956 11.1567 0.463956C10.9303 0.517218 9.71882 0.909213 9.51005 0.996782C9.43423 1.02857 9.30365 1.08227 9.21988 1.11614C8.63581 1.3521 7.81032 1.77406 7.17198 2.16298C6.86839 2.34793 6.17802 2.80626 6.15139 2.84051C6.14341 2.85079 6.09118 2.89087 6.03532 2.9296C5.97947 2.96833 5.92724 3.00788 5.91926 3.01749C5.91128 3.0271 5.85905 3.06665 5.80319 3.10541C5.74733 3.14414 5.68205 3.19688 5.65811 3.22257C5.63417 3.24826 5.56888 3.30112 5.51302 3.34002C5.45717 3.3789 5.37882 3.4447 5.33893 3.48624C5.29903 3.52779 5.22068 3.59397 5.16483 3.63334C5.10897 3.67272 4.95228 3.81745 4.81663 3.955C4.68098 4.09255 4.52429 4.23736 4.46843 4.27683C4.34233 4.36592 4.3241 4.38432 4.23586 4.51164C4.19678 4.56804 4.05335 4.72624 3.91712 4.86321C3.78089 5.00017 3.63754 5.15837 3.59855 5.21477C3.55955 5.27117 3.494 5.35027 3.45285 5.39055C3.41171 5.43084 3.34654 5.50994 3.30803 5.56634C3.2695 5.62273 3.21715 5.68865 3.19171 5.71282C3.16626 5.73699 3.11403 5.80291 3.07567 5.85931C3.03728 5.9157 2.99811 5.96844 2.98859 5.9765C2.97907 5.98455 2.9399 6.03729 2.90154 6.09368C2.86318 6.15008 2.82346 6.20282 2.81327 6.21087C2.73948 6.26917 2.06549 7.35613 1.75963 7.9101C1.59484 8.20852 1.2456 8.95534 1.10545 9.30904C1.07191 9.39362 1.01872 9.52546 0.987235 9.60201C0.900505 9.8128 0.512264 11.036 0.459512 11.2646C0.444656 11.3291 0.419209 11.4345 0.402988 11.499C0.386739 11.5635 0.361234 11.6788 0.346261 11.7553C0.331318 11.8319 0.305406 11.9637 0.288721 12.0483C0.272037 12.1329 0.245922 12.2779 0.230688 12.3706C0.215455 12.4633 0.189369 12.6215 0.172713 12.7222C0.116741 13.0604 0.0835457 13.3718 0.0688924 13.6963C0.0609129 13.8735 0.0421102 14.0311 0.0271377 14.0464C-0.00904589 14.0834 -0.00904589 15.9166 0.0271377 15.9536C0.0421102 15.9689 0.0609129 16.1265 0.0688924 16.3037C0.0835457 16.6282 0.116741 16.9396 0.172713 17.2778C0.189369 17.3786 0.215455 17.5367 0.230688 17.6294C0.245922 17.7221 0.272037 17.8671 0.288721 17.9517C0.305406 18.0363 0.331318 18.1681 0.346261 18.2447C0.361234 18.3212 0.387348 18.4399 0.404294 18.5083C0.421269 18.5768 0.446716 18.6823 0.460847 18.7427C0.513918 18.9696 0.90332 20.1941 0.987235 20.398C1.01872 20.4745 1.07191 20.6063 1.10545 20.691C1.33915 21.2807 1.75707 22.1142 2.14227 22.7587C2.32545 23.0652 2.77938 23.7622 2.8133 23.7891C2.82349 23.7972 2.86318 23.8499 2.90154 23.9063C2.9399 23.9627 2.97907 24.0154 2.98859 24.0235C2.99811 24.0316 3.03728 24.0843 3.07567 24.1407C3.11403 24.1971 3.16626 24.263 3.19171 24.2872C3.21715 24.3113 3.2695 24.3773 3.30803 24.4337C3.34654 24.4901 3.41171 24.5692 3.45285 24.6094C3.494 24.6497 3.55966 24.7288 3.59884 24.7852C3.63798 24.8416 3.78936 25.0083 3.93519 25.1556C4.08103 25.303 4.22327 25.4627 4.25127 25.5106C4.27927 25.5584 4.34102 25.6208 4.38849 25.6491C4.43596 25.6774 4.60722 25.8342 4.76904 25.9975C4.93087 26.1608 5.10897 26.3268 5.16483 26.3664C5.22068 26.4059 5.29903 26.4722 5.33893 26.5138C5.37882 26.5553 5.45717 26.6211 5.51302 26.66C5.56888 26.6989 5.63417 26.7517 5.65811 26.7774C5.68205 26.8031 5.74733 26.8559 5.80319 26.8946C5.85905 26.9333 5.91128 26.9729 5.91926 26.9825C5.92724 26.9921 5.97947 27.0317 6.03532 27.0704C6.09118 27.1091 6.14341 27.1492 6.15139 27.1595C6.18061 27.1971 6.87236 27.6535 7.225 27.8679C7.57537 28.0809 8.88219 28.757 9.10399 28.84C9.16374 28.8624 9.28444 28.91 9.37222 28.9459C9.64747 29.0584 10.9198 29.4799 11.1495 29.5347C11.2093 29.549 11.3138 29.5747 11.3816 29.5918C11.4494 29.6089 11.5669 29.6353 11.6428 29.6504C11.7186 29.6655 11.8492 29.6916 11.9329 29.7085C12.0167 29.7253 12.1603 29.7517 12.2521 29.7671C12.3439 29.7825 12.5005 29.8088 12.6003 29.8256C12.9353 29.8821 13.2438 29.9156 13.5651 29.9304C13.7407 29.9385 13.8967 29.9575 13.9118 29.9726C13.9485 30.0091 15.7642 30.0091 15.8008 29.9726C15.816 29.9575 15.972 29.9385 16.1476 29.9304C16.4689 29.9156 16.7774 29.8821 17.1124 29.8256C17.2121 29.8088 17.3688 29.7825 17.4606 29.7671C17.7342 29.7212 18.1556 29.6363 18.3238 29.5931C18.3876 29.5767 18.4921 29.551 18.5559 29.536C18.7824 29.4828 19.9939 29.0908 20.2026 29.0032C20.2784 28.9714 20.409 28.9177 20.4928 28.8839C21.0769 28.6479 21.9024 28.2259 22.5407 27.837C22.8443 27.6521 23.5346 27.1937 23.5613 27.1595C23.5693 27.1492 23.6215 27.1091 23.6774 27.0704C23.7332 27.0317 23.7854 26.9921 23.7934 26.9825C23.8014 26.9729 23.8536 26.9333 23.9095 26.8946C23.9653 26.8559 24.0306 26.8031 24.0546 26.7774C24.0785 26.7517 24.1438 26.6989 24.1996 26.66C24.2555 26.6211 24.3338 26.5553 24.3737 26.5138C24.4136 26.4722 24.492 26.406 24.5478 26.3667C24.6037 26.3273 24.7604 26.1826 24.896 26.045C25.0317 25.9075 25.1884 25.7626 25.2442 25.7232C25.3703 25.6341 25.3886 25.6157 25.4768 25.4884C25.5159 25.432 25.6593 25.2738 25.7956 25.1368C25.9318 24.9998 26.0751 24.8416 26.1141 24.7852C26.1531 24.7288 26.2187 24.6497 26.2598 24.6094C26.301 24.5692 26.3661 24.4901 26.4046 24.4337C26.4432 24.3773 26.4955 24.3113 26.521 24.2872C26.5464 24.263 26.5986 24.1971 26.637 24.1407C26.6754 24.0843 26.7146 24.0316 26.7241 24.0235C26.7336 24.0154 26.7728 23.9627 26.8111 23.9063C26.8495 23.8499 26.8892 23.7972 26.8994 23.7891C26.9841 23.7219 27.7359 22.5028 27.9381 22.1045C28.0036 21.9756 28.0752 21.8372 28.0973 21.7969C28.1646 21.6745 28.5425 20.855 28.6073 20.691C28.6408 20.6063 28.694 20.4745 28.7254 20.398C28.8094 20.1941 29.1988 18.9696 29.2518 18.7427C29.266 18.6823 29.2914 18.5768 29.3084 18.5083C29.3253 18.4399 29.3519 18.3179 29.3673 18.2373C29.3828 18.1568 29.4087 18.0249 29.4249 17.9444C29.441 17.8638 29.4668 17.7221 29.482 17.6294C29.4972 17.5367 29.5233 17.3786 29.54 17.2778C29.5959 16.9396 29.6291 16.6282 29.6438 16.3037C29.6518 16.1265 29.6706 15.9689 29.6855 15.9536C29.7217 15.9166 29.7217 14.0834 29.6855 14.0464C29.6706 14.0311 29.6518 13.8735 29.6438 13.6963C29.6291 13.3718 29.5959 13.0604 29.54 12.7222C29.5233 12.6215 29.4972 12.4633 29.482 12.3706C29.4668 12.2779 29.4406 12.1329 29.424 12.0483C29.4073 11.9637 29.3814 11.8319 29.3664 11.7553C29.3514 11.6788 29.3259 11.5635 29.3097 11.499C29.2935 11.4345 29.268 11.3291 29.2532 11.2646C29.2004 11.036 28.8122 9.8128 28.7254 9.60201C28.694 9.52546 28.6408 9.39362 28.6072 9.30904C28.3735 8.71932 27.9556 7.88585 27.5704 7.24134C27.3872 6.9348 26.9333 6.23777 26.8994 6.21087C26.8892 6.20282 26.8495 6.15008 26.8111 6.09368C26.7728 6.03729 26.7336 5.98455 26.7241 5.9765C26.7146 5.96844 26.6754 5.9157 26.637 5.85931C26.5986 5.80291 26.5464 5.73699 26.521 5.71282C26.4955 5.68865 26.4432 5.62273 26.4046 5.56634C26.3661 5.50994 26.301 5.43084 26.2598 5.39055C26.2187 5.35027 26.1531 5.27117 26.1141 5.21477C26.0751 5.15837 25.9318 5.00017 25.7956 4.86321C25.6593 4.72624 25.5159 4.56804 25.4768 4.51164C25.3886 4.38432 25.3703 4.36592 25.2442 4.27683C25.1884 4.23736 25.0317 4.09255 24.896 3.955C24.7604 3.81745 24.6037 3.67272 24.5478 3.63334C24.492 3.59397 24.4136 3.52779 24.3737 3.48624C24.3338 3.4447 24.2555 3.3789 24.1996 3.34002C24.1438 3.30112 24.0785 3.24826 24.0546 3.22257C24.0306 3.19688 23.9653 3.14414 23.9095 3.10541C23.8536 3.06665 23.8014 3.0271 23.7934 3.01749C23.7854 3.00788 23.7332 2.96833 23.6774 2.9296C23.6215 2.89087 23.5693 2.85079 23.5613 2.84051C23.5346 2.80626 22.8443 2.34793 22.5407 2.16298C21.9024 1.77406 21.0769 1.3521 20.4928 1.11614C20.409 1.08227 20.2784 1.02857 20.2026 0.996782C20.0007 0.912055 18.7879 0.518888 18.5632 0.465304C18.5034 0.451036 18.3989 0.425342 18.3311 0.408204C18.1513 0.362852 17.7324 0.278476 17.4606 0.232919C17.3688 0.217538 17.2121 0.1912 17.1124 0.174384C16.7774 0.11787 16.4689 0.0843536 16.1476 0.0695586C15.972 0.0615019 15.816 0.0425174 15.8008 0.0274001C15.7642 -0.00913337 13.9485 -0.00913337 13.9118 0.0274001ZM18.5124 8.2005C18.664 8.21441 18.8403 8.23841 18.9041 8.25376C19.1736 8.31859 20.2292 8.92044 20.4688 9.14585C20.5 9.17518 20.5524 9.1988 20.5853 9.19833C20.6182 9.19786 20.9063 9.10689 21.2255 8.99615C21.9701 8.73786 22.0172 8.7197 22.2497 8.6019C22.3566 8.5477 22.4885 8.49364 22.5428 8.48175C22.6315 8.46235 22.6392 8.46569 22.6193 8.51474C22.6071 8.54474 22.5906 8.59566 22.5825 8.62788C22.5652 8.69691 22.232 9.2694 22.1677 9.34059C22.1433 9.36755 22.0913 9.43575 22.052 9.49215C22.0127 9.54854 21.9121 9.66395 21.8284 9.74858C21.6889 9.88977 21.5591 10.0903 21.5591 10.1648C21.5591 10.1819 21.6238 10.1953 21.7063 10.1953C21.8092 10.1953 22.0092 10.1424 22.3716 10.0195C22.8885 9.84418 23.01 9.81652 23.01 9.87418C23.01 9.94871 22.8802 10.1492 22.7407 10.2904C22.657 10.375 22.5562 10.4904 22.5165 10.5468C22.4769 10.6032 22.2588 10.8369 22.0318 11.0662C21.8048 11.2954 21.5894 11.5393 21.5531 11.6082C21.5028 11.7034 21.4819 11.8069 21.4655 12.041C21.422 12.6639 21.3627 13.1853 21.3006 13.4912C21.2842 13.5718 21.2582 13.7036 21.2427 13.7842C21.2273 13.8647 21.2007 13.9867 21.1838 14.0552C21.1668 14.1236 21.1399 14.2324 21.1239 14.2969C21.1079 14.3613 21.0833 14.4635 21.0692 14.5239C21.0181 14.7422 20.7888 15.476 20.7167 15.6519C20.6853 15.7284 20.6322 15.8602 20.5987 15.9448C20.4522 16.3146 20.3258 16.5621 20.0416 17.0361C19.8081 17.4255 19.7211 17.5647 19.703 17.5781C19.6921 17.5862 19.6264 17.6785 19.557 17.7832C19.4876 17.888 19.4227 17.9802 19.4127 17.9883C19.4028 17.9964 19.3632 18.0491 19.3248 18.1055C19.2865 18.1619 19.2343 18.2278 19.2088 18.252C19.1834 18.2761 19.1308 18.3421 19.0921 18.3985C19.0533 18.4549 18.9492 18.5735 18.8606 18.6621C18.7721 18.7508 18.6674 18.8694 18.6281 18.9258C18.5358 19.058 18.2368 19.3598 18.1062 19.4527C18.0503 19.4923 17.9459 19.5848 17.8741 19.6582C17.8022 19.7316 17.6978 19.8236 17.6419 19.8627C17.5861 19.9018 17.5338 19.9416 17.5259 19.9512C17.5179 19.9608 17.4656 20.0004 17.4098 20.0391C17.3539 20.0778 17.3017 20.1179 17.2937 20.1281C17.195 20.2548 16.0406 20.9105 15.6763 21.0468C15.6163 21.0693 15.4954 21.1169 15.4076 21.1526C15.1528 21.2564 14.5516 21.4537 14.3268 21.5073C14.267 21.5216 14.1625 21.5473 14.0947 21.5644C13.5063 21.7129 12.4934 21.8285 11.7806 21.8285C11.2909 21.8285 10.4258 21.7542 10.0831 21.6826C10.0033 21.6659 9.87275 21.6395 9.79296 21.6239C9.71316 21.6083 9.59564 21.5821 9.53181 21.5657C9.46797 21.5493 9.36351 21.5238 9.29968 21.5089C9.11943 21.467 8.32745 21.1947 8.15161 21.1141C8.06488 21.0744 7.896 20.9993 7.77631 20.9473C7.15811 20.6784 6.7027 20.4315 6.7027 20.3652C6.7027 20.3221 6.88739 20.2984 7.42811 20.272C8.23364 20.2327 8.86597 20.1478 9.25615 20.0264C9.34393 19.9991 9.46144 19.9637 9.5173 19.9478C9.57316 19.9318 9.68087 19.8931 9.75669 19.8617C9.83251 19.8304 9.96308 19.777 10.0469 19.7432C10.353 19.6195 10.5839 19.5027 10.9246 19.2991C11.3061 19.0711 11.3803 19.017 11.3668 18.9763C11.3619 18.9615 11.2343 18.906 11.0832 18.8532C10.9321 18.8003 10.7367 18.7277 10.6489 18.6918C10.5612 18.656 10.4388 18.6078 10.3771 18.5848C10.2048 18.5204 10.1081 18.4652 9.78506 18.2465C9.12955 17.8028 8.70548 17.3029 8.51774 16.7528C8.48054 16.6437 8.48022 16.6205 8.51559 16.5848C8.60575 16.4938 8.77436 16.4657 9.23439 16.4653C9.51309 16.465 9.6914 16.4537 9.6914 16.4361C9.6914 16.4038 9.5115 16.3067 9.40123 16.2795C9.33081 16.2622 8.79203 15.9509 8.76287 15.9107C8.75489 15.8997 8.70266 15.8591 8.64681 15.8203C8.59095 15.7816 8.52566 15.7288 8.50172 15.7031C8.47779 15.6774 8.4125 15.6244 8.35664 15.5852C8.30078 15.546 8.22868 15.4873 8.19641 15.4547C8.16415 15.4222 8.10603 15.3494 8.06723 15.293C8.02844 15.2366 7.97551 15.1707 7.9496 15.1465C7.87772 15.0794 7.62099 14.6762 7.5765 14.5605C7.34588 13.9609 7.23431 13.5614 7.2055 13.2317C7.18806 13.0319 7.20921 12.998 7.32777 13.0354C7.54607 13.1043 8.18037 13.2998 8.28825 13.3314C8.35438 13.3508 8.42294 13.3577 8.44059 13.3466C8.48864 13.3167 8.47938 13.2313 8.42114 13.1671C8.39277 13.1359 8.33769 13.0642 8.29875 13.0078C8.25981 12.9514 8.18138 12.8591 8.12451 12.8027C8.06764 12.7463 7.98929 12.654 7.95044 12.5976C7.91159 12.5412 7.86232 12.477 7.84099 12.4548C7.72919 12.3387 7.44079 11.6714 7.36462 11.3525C7.2436 10.8458 7.24531 10.1634 7.36886 9.66793C7.38697 9.59542 7.41247 9.48995 7.42559 9.43355C7.4387 9.37716 7.47187 9.27169 7.49932 9.19918C7.63233 8.84764 7.64707 8.81831 7.69068 8.81831C7.70554 8.81831 7.87778 8.97989 8.07344 9.17738C8.2691 9.37487 8.47488 9.56905 8.53074 9.6089C8.5866 9.64871 8.71717 9.76757 8.8209 9.87301C8.92464 9.97845 9.05521 10.0968 9.11107 10.1359C9.16693 10.1751 9.23221 10.2282 9.25615 10.2539C9.28009 10.2796 9.34538 10.3323 9.40123 10.371C9.45709 10.4098 9.50932 10.4497 9.5173 10.4597C9.52528 10.4698 9.61668 10.5354 9.72042 10.6054C9.82415 10.6755 9.91555 10.7419 9.92353 10.7529C9.96163 10.8056 10.7091 11.2359 11.0564 11.4052C11.7501 11.7432 11.8291 11.7738 12.7381 12.0575C12.8259 12.0849 12.9565 12.1179 13.0283 12.1309C13.1001 12.1439 13.2176 12.1695 13.2894 12.1879C13.5614 12.2574 14.126 12.337 14.3921 12.3434L14.6097 12.3486L14.6267 11.6894C14.636 11.3269 14.6583 10.9775 14.6761 10.9131C14.694 10.8486 14.721 10.7431 14.7362 10.6787C14.8047 10.3884 15.0043 9.96705 15.2409 9.61291C15.3915 9.3877 15.7245 9.03168 15.9009 8.90735C15.9568 8.868 16.009 8.82769 16.017 8.81779C16.1066 8.70666 16.6682 8.41683 16.9745 8.32363C17.0942 8.28722 17.2323 8.2452 17.2813 8.23026C17.3303 8.21529 17.4739 8.20287 17.6005 8.20263C17.727 8.20237 17.8501 8.18881 17.8741 8.17246C17.8983 8.15588 17.9882 8.1499 18.0772 8.15895C18.1649 8.16786 18.3608 8.18655 18.5124 8.2005Z" fill="#2ECC71"/>
</svg>
