<svg width="180" height="50" viewBox="0 0 180 50" fill="none" xmlns="http://www.w3.org/2000/svg">
<path d="M25.8357 0L25.2049 4.44325H9.87353L8.20052 16.167H21.7218L21.1184 20.6103H7.51486L5.67728 32.9497H25.8357L25.1501 37.3929H0L5.56758 0H25.8357Z" fill="#2ECC71"/>
<path d="M51.4247 12.0182L45.9942 50H41.222L43.1144 36.6702C41.0483 37.6695 39.3113 38.1692 37.9034 38.1692C35.0328 38.1692 32.7015 37.152 30.9096 35.1178C29.1178 33.0657 28.2219 30.389 28.2219 27.0878C28.2219 22.7873 29.776 19.2006 32.8844 16.3276C36.011 13.4547 40.4175 12.0182 46.1039 12.0182H51.4247ZM43.6355 33.2173L46.1039 15.8458C42.0265 15.6495 38.845 16.6131 36.5595 18.7366C34.274 20.8423 33.1312 23.7152 33.1312 27.3555C33.1312 29.4611 33.7254 31.1474 34.9139 32.4143C36.1207 33.6813 37.7114 34.3148 39.6861 34.3148C40.7283 34.3148 42.0448 33.949 43.6355 33.2173Z" fill="#2ECC71"/>
<path d="M77.5072 12.7677L73.9144 37.3929H69.197L69.6358 33.2173C66.7286 36.2509 63.9586 37.7677 61.3256 37.7677C59.6252 37.7677 58.1807 37.1788 56.9922 36.0011C55.822 34.8055 55.2369 33.1103 55.2369 30.9154C55.2369 30.2909 55.2826 29.6574 55.3741 29.015L57.7327 12.7677H62.505L60.1463 29.015C60.0731 29.5503 60.0366 30.05 60.0366 30.5139C60.0366 32.9764 60.9691 34.2077 62.8341 34.2077C64.7905 34.2077 67.3229 32.3965 70.4312 28.7741L72.735 12.7677H77.5072Z" fill="#2ECC71"/>
<path d="M84.6107 5.05889C84.6107 4.30942 84.8758 3.67595 85.4061 3.15846C85.9546 2.62313 86.6037 2.35546 87.3533 2.35546C88.103 2.35546 88.743 2.62313 89.2732 3.15846C89.8217 3.67595 90.096 4.30942 90.096 5.05889C90.096 5.79051 89.8217 6.42398 89.2732 6.95931C88.743 7.4768 88.103 7.73555 87.3533 7.73555C86.6037 7.73555 85.9546 7.4768 85.4061 6.95931C84.8758 6.42398 84.6107 5.79051 84.6107 5.05889ZM88.8618 12.7677L85.3238 37.3929H80.5516L84.0896 12.7677H88.8618Z" fill="#2ECC71"/>
<path d="M105.866 12.7677L105.345 16.4079H100.299L97.8851 29.8715C97.7571 30.5496 97.6931 31.1206 97.6931 31.5846C97.6931 33.1906 98.5799 33.9936 100.354 33.9936C101.67 33.9936 103.206 33.5029 104.961 32.5214L104.687 37.0717C102.932 37.8034 101.185 38.1692 99.4484 38.1692C97.3823 38.1692 95.7458 37.6606 94.5391 36.6435C93.3506 35.6085 92.7564 34.2523 92.7564 32.5749C92.7564 32.1645 92.8021 31.7452 92.8935 31.3169L95.5264 16.4079H91.0834L91.6593 12.7677H96.2395L97.1995 7.73555H101.917L101.039 12.7677H105.866Z" fill="#2ECC71"/>
<path d="M127.451 30.969L126.765 35.4122C124.205 37.2502 121.399 38.1692 118.345 38.1692C115.164 38.1692 112.604 37.0896 110.666 34.9304C108.746 32.7534 107.786 29.8626 107.786 26.258C107.786 22.243 108.938 18.8704 111.242 16.1403C113.564 13.3922 116.398 12.0182 119.744 12.0182C122.304 12.0182 124.434 12.9818 126.134 14.909C127.835 16.8183 128.685 19.2898 128.685 22.3233C128.685 23.0728 128.63 23.8401 128.52 24.6253H112.778C112.631 25.4461 112.558 26.2313 112.558 26.9807C112.558 29.247 113.189 31.0403 114.451 32.3608C115.731 33.6635 117.33 34.3148 119.25 34.3148C121.591 34.3148 124.324 33.1995 127.451 30.969ZM113.518 21.3865H124.077C124.077 19.6734 123.675 18.3262 122.871 17.3448C122.084 16.3455 120.969 15.8458 119.525 15.8458C116.782 15.8458 114.78 17.6927 113.518 21.3865Z" fill="#2ECC71"/>
<path d="M152.08 30.969L151.394 35.4122C148.834 37.2502 146.028 38.1692 142.974 38.1692C139.793 38.1692 137.233 37.0896 135.295 34.9304C133.375 32.7534 132.415 29.8626 132.415 26.258C132.415 22.243 133.567 18.8704 135.871 16.1403C138.193 13.3922 141.027 12.0182 144.373 12.0182C146.933 12.0182 149.063 12.9818 150.763 14.909C152.464 16.8183 153.314 19.2898 153.314 22.3233C153.314 23.0728 153.259 23.8401 153.149 24.6253H137.407C137.26 25.4461 137.187 26.2313 137.187 26.9807C137.187 29.247 137.818 31.0403 139.08 32.3608C140.36 33.6635 141.959 34.3148 143.879 34.3148C146.22 34.3148 148.953 33.1995 152.08 30.969ZM138.147 21.3865H148.706C148.706 19.6734 148.304 18.3262 147.5 17.3448C146.713 16.3455 145.598 15.8458 144.154 15.8458C141.411 15.8458 139.409 17.6927 138.147 21.3865Z" fill="#2ECC71"/>
<path d="M180 12.7677L163.27 33.2709H177.943L177.038 37.3929H154.164L170.62 16.8897H157.894L158.443 12.7677H180Z" fill="#2ECC71"/>
</svg>
