<svg width="65" height="58" viewBox="0 0 65 58" fill="none" xmlns="http://www.w3.org/2000/svg">
<path fill-rule="evenodd" clip-rule="evenodd" d="M17.2062 0.028954C17.1792 0.0555528 16.8802 0.100587 16.5417 0.129029C16.2032 0.157471 15.7461 0.209286 15.526 0.244115C14.9172 0.340569 12.7299 0.914023 12.4925 1.03945C12.4164 1.07967 12.1796 1.16763 11.9664 1.23486C11.7531 1.30208 11.3646 1.46351 11.103 1.59361C10.8414 1.72371 10.5908 1.8301 10.5462 1.8301C10.5017 1.8301 10.2683 1.9444 10.0277 2.08411C9.78703 2.22382 9.30129 2.50521 8.9482 2.70938C8.42057 3.01454 6.87911 4.10391 6.75559 4.25902C6.73725 4.282 6.55777 4.43376 6.35668 4.59625C5.89081 4.97271 5.14116 5.71215 4.75472 6.17651C4.58965 6.37488 4.3901 6.60222 4.31133 6.68175C4.07089 6.9245 3.60302 7.55076 3.03678 8.3877C2.5383 9.1245 1.49411 11.0694 1.24654 11.7221C0.860839 12.7392 0.608796 13.5316 0.487277 14.109C0.0785006 16.0517 0 16.778 0 18.619C0 21.3665 0.307866 22.9644 1.37966 25.7795C1.60863 26.3809 2.52169 28.0893 2.95488 28.7266C3.3886 29.3648 4.39137 30.6543 4.61766 30.865C4.67602 30.9193 4.8583 31.1258 5.0227 31.324C5.26621 31.6175 30.6825 56.7486 31.2447 57.2518C31.4942 57.4751 32.0754 57.6613 32.5229 57.6613C32.8229 57.6613 33.0155 57.6137 33.3462 57.4579C33.7476 57.2688 34.7015 56.3427 46.9283 44.2721C54.1609 37.1317 60.2136 31.1274 60.3785 30.9291C60.5434 30.7309 60.7155 30.53 60.7609 30.4827C61.5133 29.6999 63.1575 26.9956 63.6204 25.7795C64.3867 23.7668 64.6591 22.7253 64.9253 20.7916C65.0249 20.0676 65.0249 17.0386 64.9253 16.3146C64.7891 15.3249 64.6427 14.5179 64.5192 14.0761C64.2759 13.2054 64.1799 12.8883 64.0805 12.6276C64.0183 12.4647 63.8947 12.1292 63.8058 11.8822C63.3125 10.5113 61.6006 7.62884 60.7609 6.75523C60.7155 6.70796 60.5434 6.50689 60.3785 6.30838C59.9953 5.84725 59.2461 5.10742 58.777 4.727C58.5761 4.56405 58.3458 4.36706 58.2652 4.28931C57.9083 3.94484 56.8126 3.18289 55.8435 2.60516C55.285 2.27228 53.8472 1.55068 53.4603 1.40913C53.322 1.35857 53.0589 1.25757 52.8755 1.18475C52.0463 0.855361 50.9321 0.520572 50.1744 0.373093C48.739 0.0936737 48.0066 0.031127 46.1726 0.031127C45.2005 0.031127 44.1501 0.065363 43.8383 0.107171C42.8733 0.236675 42.0673 0.377636 41.5706 0.503783C41.3385 0.562708 39.4615 1.19371 38.9189 1.39517C38.3391 1.61046 36.5906 2.51463 36.0058 2.90156C35.4183 3.29021 34.2145 4.16771 34.027 4.34396C33.9758 4.39202 33.7699 4.56451 33.5694 4.72727C33.3688 4.89009 33.0708 5.14916 32.9072 5.30309C32.7435 5.45702 32.5596 5.58291 32.4985 5.58291C32.4374 5.58291 32.2241 5.42733 32.0244 5.23725C31.8248 5.04718 31.4975 4.75841 31.2971 4.59559C31.0966 4.43284 30.8935 4.26291 30.8456 4.21807C30.5245 3.91725 29.3782 3.12969 28.4983 2.60516C27.9398 2.27228 26.5021 1.55068 26.1152 1.40913C25.9769 1.35857 25.6988 1.25171 25.497 1.17172C24.7304 0.867739 24.6199 0.832252 23.4295 0.508062C22.9867 0.387446 22.14 0.237136 21.1952 0.111252C20.5624 0.0269788 17.2768 -0.040835 17.2062 0.028954ZM20.9617 4.0538C21.8431 4.21359 22.0909 4.26659 22.5624 4.39643C22.8375 4.47221 23.2277 4.57762 23.4295 4.63075C24.6775 4.95941 27.545 6.51946 28.3999 7.33494C28.5476 7.47577 28.8316 7.72431 29.0311 7.88726C29.2305 8.05021 29.855 8.63585 30.4189 9.18869C30.9827 9.74154 31.524 10.2329 31.6219 10.2805C31.7197 10.3282 31.9676 10.4053 32.1726 10.452C32.5146 10.5298 32.581 10.5246 32.973 10.3901C33.2081 10.3093 33.4693 10.2005 33.5535 10.1482C33.6377 10.0958 34.1936 9.57312 34.789 8.98657C35.3843 8.40008 36.0352 7.78686 36.2354 7.62391C36.4356 7.46095 36.69 7.2425 36.8007 7.13848C37.0549 6.89961 38.058 6.22892 38.6694 5.88899C39.9387 5.18333 39.8902 5.20552 41.0704 4.78784C41.5903 4.60389 42.8331 4.28358 43.5715 4.14328C43.7733 4.10496 44.0584 4.05104 44.2051 4.02345C44.3518 3.99587 45.2372 3.97328 46.1726 3.97328C47.108 3.97328 47.9934 3.99587 48.1401 4.02345C48.2869 4.05104 48.572 4.10496 48.7737 4.14328C49.4609 4.27384 50.7799 4.60856 51.1279 4.7407C51.3188 4.81319 51.5879 4.91379 51.726 4.96435C52.6678 5.30895 54.3772 6.28731 55.3683 7.04894C55.9162 7.47011 57.2906 8.82862 57.8327 9.48503C58.4581 10.2424 59.5826 12.1096 59.8719 12.8714C60.3321 14.0827 60.514 14.6929 60.7118 15.6891C60.7549 15.9064 60.8051 16.1434 60.8233 16.2159C61.0705 17.2011 61.0506 19.9645 60.7876 21.1867C60.7526 21.3496 60.7034 21.6015 60.6785 21.7463C60.6359 21.9939 60.558 22.2774 60.2266 23.3923C60.1513 23.6457 60.0202 23.9917 59.9354 24.161C59.8506 24.3304 59.7406 24.5855 59.6909 24.7279C59.5349 25.1747 58.4591 26.9284 57.8647 27.7047C57.433 28.2685 56.1066 29.6706 54.9488 30.787C54.5851 31.1377 54.1649 31.5551 54.015 31.7147C53.8652 31.8743 53.445 32.2891 53.0813 32.6365C52.7176 32.9838 52.2974 33.3986 52.1475 33.5582C51.9977 33.7178 51.5775 34.1326 51.2138 34.48C50.8501 34.8273 50.4299 35.2421 50.2801 35.4017C50.1302 35.5613 49.7094 35.9761 49.3447 36.3234C48.9802 36.6708 48.53 37.1144 48.3443 37.309C48.1587 37.5037 47.7382 37.9185 47.4101 38.2308C47.082 38.5431 46.6618 38.9578 46.4764 39.1525C46.2909 39.3472 45.8708 39.762 45.5426 40.0743C45.2145 40.3865 44.7943 40.8013 44.6089 40.996C44.4235 41.1907 44.0033 41.6055 43.6751 41.9178C43.347 42.23 42.9268 42.6447 42.7414 42.8394C42.556 43.0341 42.1067 43.4785 41.743 43.827C41.3794 44.1755 40.9592 44.5912 40.8093 44.7508C40.6594 44.9104 40.2393 45.3252 39.8756 45.6725C39.5119 46.0199 39.0917 46.4347 38.9418 46.5943C38.792 46.7539 38.3718 47.1686 38.0081 47.516C37.6444 47.8634 37.2242 48.2773 37.0744 48.4359C36.6915 48.8411 35.7739 49.7437 35.4266 50.0569C35.2659 50.2018 35.0145 50.4543 34.8677 50.6181C34.721 50.7819 34.4361 51.0486 34.2347 51.2107C34.0332 51.3728 33.6102 51.7611 33.2947 52.0736C32.9791 52.3862 32.6568 52.6758 32.5784 52.7173C32.4464 52.787 31.6754 52.0428 22.2022 42.7011C16.5737 37.1508 11.7786 32.4311 11.5464 32.2128C10.5489 31.2751 7.41734 28.0901 7.11074 27.7013C6.03274 26.3346 5.13795 24.6588 4.65168 23.096C4.10404 21.3359 3.99739 20.606 3.99739 18.619C3.99739 16.8704 4.08323 16.1207 4.41964 14.932C4.49648 14.6604 4.60339 14.2753 4.65721 14.0761C4.78313 13.6102 4.92953 13.2679 5.49831 12.1093C6.27451 10.5281 6.97422 9.57582 8.36448 8.20835C9.73567 6.85972 10.585 6.25874 12.3501 5.38809C13.582 4.78046 13.982 4.65057 16.2106 4.13446C16.3671 4.09824 16.5922 4.06651 16.7108 4.06401C16.8295 4.06144 16.9867 4.0332 17.06 4.0012C17.2359 3.9245 20.4905 3.96841 20.9617 4.0538Z" fill="black"/>
<path fill-rule="evenodd" clip-rule="evenodd" d="M18.5905 6.82431C18.5142 6.85335 18.2571 6.87897 18.0191 6.88128C17.7812 6.88352 17.4534 6.91168 17.2907 6.94375C15.8189 7.23398 15.1988 7.39111 13.9217 7.7976C12.7125 8.18249 10.7858 9.27777 9.64906 10.2264C7.79171 11.7766 6.35095 14.1597 5.98216 16.2918C5.88205 16.8705 5.88559 19.0207 5.98771 19.6639C6.12826 20.5492 6.28102 21.2773 6.40978 21.6753C6.74347 22.7068 7.07487 23.5985 7.26731 23.9825C7.3244 24.0964 7.4404 24.336 7.5251 24.5149C8.55246 26.6848 9.8499 28.6181 12.0256 31.221C12.636 31.9513 14.3817 33.877 14.5271 33.9804C14.55 33.9967 14.7083 34.1564 14.879 34.3354C15.0496 34.5143 15.2057 34.6741 15.2258 34.6903C15.2459 34.7066 15.4024 34.8663 15.5735 35.0453C15.7445 35.2243 15.9939 35.4639 16.1277 35.5777C16.2615 35.6916 16.5113 35.9312 16.6829 36.1102C16.8545 36.2891 17.1354 36.5553 17.3071 36.7018C17.4788 36.8482 17.7597 37.1137 17.9314 37.2918C18.3359 37.7113 25.3443 43.6884 25.841 44.0375C26.0494 44.184 26.5797 44.6099 27.0194 44.9841C27.4592 45.3583 27.99 45.7842 28.1991 45.9306C28.4081 46.0771 28.8451 46.4231 29.17 46.6997C29.495 46.9763 29.9308 47.3224 30.1387 47.4688C30.3465 47.6152 30.8511 48.0158 31.26 48.3591C31.6688 48.7024 32.1151 49.0346 32.2517 49.0973C32.4965 49.2097 32.5034 49.2097 32.7468 49.098C32.8826 49.0356 33.2976 48.7301 33.6692 48.4189C34.0407 48.1079 34.5147 47.7335 34.7224 47.5871C34.9301 47.4407 35.3973 47.068 35.7605 46.7589C36.1238 46.4498 36.592 46.0771 36.8009 45.9306C37.01 45.7842 37.5408 45.3583 37.9805 44.9841C38.4203 44.6099 38.9506 44.184 39.1589 44.0375C39.6556 43.6884 46.6641 37.7113 47.0685 37.2918C47.2402 37.1137 47.5212 36.8482 47.6929 36.7018C47.8646 36.5553 48.1455 36.2891 48.317 36.1102C48.4886 35.9312 48.7384 35.6916 48.8722 35.5777C49.0061 35.4639 49.2555 35.2243 49.4265 35.0453C49.5975 34.8663 49.754 34.7066 49.7741 34.6903C49.7942 34.6741 49.9503 34.5143 50.121 34.3354C50.2916 34.1564 50.4499 33.9967 50.4728 33.9804C50.6182 33.877 52.364 31.9513 52.9743 31.221C55.1283 28.6441 56.4664 26.6504 57.4752 24.5149C57.5597 24.336 57.6755 24.0964 57.7326 23.9825C57.9251 23.5985 58.2565 22.7068 58.5902 21.6753C58.7189 21.2773 58.8717 20.5492 59.0122 19.6639C59.1143 19.0207 59.1179 16.8705 59.0178 16.2918C58.649 14.1597 57.2082 11.7766 55.3509 10.2264C54.2148 9.27824 52.2932 8.18568 51.0782 7.79712C48.6274 7.01338 47.41 6.80922 45.1954 6.81064C43.1586 6.81188 41.646 7.00232 40.2352 7.43501C39.0188 7.80807 38.8288 7.88409 37.9111 8.36428C37.0708 8.80402 36.5541 9.16536 35.5958 9.98354C34.5631 10.8653 34.0947 11.353 33.2732 12.402C32.8153 12.9868 32.5979 13.2155 32.5 13.2155C32.402 13.2155 32.1847 12.9868 31.7267 12.402C30.9053 11.353 30.4369 10.8653 29.4041 9.98354C28.249 8.99735 27.3589 8.42735 26.1747 7.91544C25.3572 7.56208 23.7898 7.133 22.8223 6.9977C21.6439 6.83294 18.8668 6.71912 18.5905 6.82431Z" fill="#2ECC71"/>
</svg>
